<svg version="1.2" xmlns="http://www.w3.org/2000/svg" viewBox="0 0 729 575" width="729" height="575">
	<title>New Project</title>
	<style>
		.s0 { fill: #ffb6c1 } 
		.s1 { fill: #ffffff } 
	</style>
	<path id="&lt;Path&gt;" class="s0" d="m253.2 95.8q0.1 0 0.1-0.1 0-0.1-0.1-0.1-0.1 0-0.1 0.1 0 0.1 0.1 0.1z"/>
	<path id="&lt;Path&gt;" class="s0" d="m287.1 96c0.1 0 0.2-0.1 0.2-0.3 0-0.2-0.1-0.3-0.2-0.3-0.2 0-0.3 0.1-0.3 0.3 0 0.2 0.1 0.3 0.3 0.3z"/>
	<path id="&lt;Path&gt;" class="s0" d="m320.9 96.2c0.3 0 0.5-0.2 0.5-0.5 0-0.3-0.2-0.5-0.5-0.5-0.2 0-0.4 0.2-0.4 0.5 0 0.3 0.2 0.5 0.4 0.5z"/>
	<path id="&lt;Path&gt;" class="s0" d="m354.8 96.3c0.3 0 0.6-0.3 0.6-0.6 0-0.3-0.3-0.6-0.6-0.6-0.3 0-0.6 0.3-0.6 0.6 0 0.3 0.3 0.6 0.6 0.6z"/>
	<path id="&lt;Path&gt;" class="s0" d="m388.7 96.3c0.3 0 0.6-0.3 0.6-0.6 0-0.3-0.3-0.6-0.6-0.6-0.3 0-0.6 0.3-0.6 0.6 0 0.3 0.3 0.6 0.6 0.6z"/>
	<path id="&lt;Path&gt;" class="s0" d="m422.6 96.2c0.2 0 0.4-0.2 0.4-0.5 0-0.3-0.2-0.5-0.4-0.5-0.3 0-0.5 0.2-0.5 0.5 0 0.3 0.2 0.5 0.5 0.5z"/>
	<path id="&lt;Path&gt;" class="s0" d="m456.5 96c0.1 0 0.2-0.1 0.2-0.3 0-0.2-0.1-0.3-0.2-0.3-0.2 0-0.3 0.1-0.3 0.3 0 0.2 0.1 0.3 0.3 0.3z"/>
	<path id="&lt;Path&gt;" class="s0" d="m490.3 95.8q0.1 0 0.1-0.1 0-0.1-0.1-0.1 0 0-0.1 0.1 0.1 0.1 0.1 0.1z"/>
	<path id="&lt;Path&gt;" class="s0" d="m168.5 130c0.2 0 0.3-0.2 0.3-0.4 0-0.2-0.1-0.4-0.3-0.4-0.2 0-0.4 0.2-0.4 0.4 0 0.2 0.2 0.4 0.4 0.4z"/>
	<path id="&lt;Path&gt;" class="s0" d="m202.3 130.8c0.7 0 1.3-0.5 1.3-1.2 0-0.7-0.6-1.2-1.3-1.2-0.6 0-1.2 0.5-1.2 1.2 0 0.7 0.6 1.2 1.2 1.2z"/>
	<path id="&lt;Path&gt;" class="s0" d="m236.2 131.8c1.3 0 2.3-1 2.3-2.2 0-1.3-1-2.3-2.3-2.3-1.2 0-2.2 1-2.2 2.3 0 1.2 1 2.2 2.2 2.2z"/>
	<path id="&lt;Path&gt;" class="s0" d="m270.1 132.7c1.7 0 3.1-1.4 3.1-3.1 0-1.7-1.4-3.1-3.1-3.1-1.7 0-3.1 1.4-3.1 3.1 0 1.7 1.4 3.1 3.1 3.1z"/>
	<path id="&lt;Path&gt;" class="s0" d="m304 133.3c2.1 0 3.7-1.6 3.7-3.7 0-2.1-1.6-3.8-3.7-3.8-2.1 0-3.8 1.7-3.8 3.8 0 2.1 1.7 3.7 3.8 3.7z"/>
	<path id="&lt;Path&gt;" class="s0" d="m337.9 133.8c2.3 0 4.2-1.9 4.2-4.2 0-2.4-1.9-4.2-4.2-4.2-2.4 0-4.3 1.8-4.3 4.2 0 2.3 1.9 4.2 4.3 4.2z"/>
	<path id="&lt;Path&gt;" class="s0" d="m371.8 133.9c2.3 0 4.3-1.9 4.3-4.3 0-2.4-2-4.3-4.3-4.3-2.4 0-4.4 1.9-4.4 4.3 0 2.4 2 4.3 4.4 4.3z"/>
	<path id="&lt;Path&gt;" class="s0" d="m405.6 133.8c2.4 0 4.3-1.9 4.3-4.2 0-2.4-1.9-4.2-4.3-4.2-2.3 0-4.2 1.8-4.2 4.2 0 2.3 1.9 4.2 4.2 4.2z"/>
	<path id="&lt;Path&gt;" class="s0" d="m439.5 133.4c2.1 0 3.9-1.7 3.9-3.8 0-2.1-1.8-3.9-3.9-3.9-2.1 0-3.8 1.8-3.8 3.9 0 2.1 1.7 3.8 3.8 3.8z"/>
	<path id="&lt;Path&gt;" class="s0" d="m473.4 132.8c1.8 0 3.2-1.5 3.2-3.2 0-1.8-1.4-3.2-3.2-3.2-1.8 0-3.2 1.4-3.2 3.2 0 1.7 1.4 3.2 3.2 3.2z"/>
	<path id="&lt;Path&gt;" class="s0" d="m507.3 131.9c1.3 0 2.3-1 2.3-2.3 0-1.3-1-2.4-2.3-2.4-1.3 0-2.4 1.1-2.4 2.4 0 1.3 1.1 2.3 2.4 2.3z"/>
	<path id="&lt;Path&gt;" class="s0" d="m541.2 130.9c0.7 0 1.3-0.6 1.3-1.3 0-0.7-0.6-1.3-1.3-1.3-0.8 0-1.4 0.6-1.4 1.3 0 0.7 0.6 1.3 1.4 1.3z"/>
	<path id="&lt;Path&gt;" class="s0" d="m575 130.1c0.3 0 0.5-0.3 0.5-0.5 0-0.3-0.2-0.5-0.5-0.5-0.2 0-0.4 0.2-0.4 0.5 0 0.2 0.2 0.5 0.4 0.5z"/>
	<path id="&lt;Path&gt;" class="s0" d="m608.9 129.7q0.1 0 0.1-0.1 0-0.1-0.1-0.1-0.1 0-0.1 0.1 0 0.1 0.1 0.1z"/>
	<path id="&lt;Path&gt;" class="s0" d="m83.8 163.6q0 0 0.1-0.1-0.1-0.1-0.1-0.1-0.1 0-0.1 0.1 0 0.1 0.1 0.1z"/>
	<path id="&lt;Path&gt;" class="s0" d="m117.6 164.4c0.6 0 1-0.4 1-0.9 0-0.6-0.4-1-1-1-0.5 0-0.9 0.4-0.9 1 0 0.5 0.4 0.9 0.9 0.9z"/>
	<path id="&lt;Path&gt;" class="s0" d="m151.5 166c1.4 0 2.6-1.1 2.6-2.5 0-1.4-1.2-2.6-2.6-2.6-1.4 0-2.5 1.2-2.5 2.6 0 1.4 1.1 2.5 2.5 2.5z"/>
	<path id="&lt;Path&gt;" class="s0" d="m185.4 167.5c2.2 0 4-1.8 4-4 0-2.3-1.8-4.1-4-4.1-2.2 0-4 1.8-4 4.1 0 2.2 1.8 4 4 4z"/>
	<path id="&lt;Path&gt;" class="s0" d="m219.3 168.9c3 0 5.4-2.4 5.4-5.4 0-3-2.4-5.5-5.4-5.5-3 0-5.5 2.5-5.5 5.5 0 3 2.5 5.4 5.5 5.4z"/>
	<path id="&lt;Path&gt;" class="s0" d="m253.2 170c3.6 0 6.5-2.9 6.5-6.5 0-3.7-2.9-6.6-6.5-6.6-3.7 0-6.6 2.9-6.6 6.6 0 3.6 2.9 6.5 6.6 6.5z"/>
	<path id="&lt;Path&gt;" class="s0" d="m287.1 171c4.1 0 7.5-3.4 7.5-7.5 0-4.2-3.4-7.5-7.5-7.5-4.2 0-7.6 3.3-7.6 7.5 0 4.1 3.4 7.5 7.6 7.5z"/>
	<path id="&lt;Path&gt;" class="s0" d="m320.9 171.6c4.5 0 8.2-3.6 8.2-8.1 0-4.5-3.7-8.2-8.2-8.2-4.5 0-8.1 3.7-8.1 8.2 0 4.5 3.6 8.1 8.1 8.1z"/>
	<path id="&lt;Path&gt;" class="s0" d="m354.8 171.9c4.7 0 8.5-3.8 8.5-8.4 0-4.7-3.8-8.5-8.5-8.5-4.7 0-8.4 3.8-8.4 8.5 0 4.6 3.7 8.4 8.4 8.4z"/>
	<path id="&lt;Path&gt;" class="s0" d="m388.7 171.9c4.7 0 8.5-3.8 8.5-8.4 0-4.7-3.8-8.5-8.5-8.5-4.7 0-8.5 3.8-8.5 8.5 0 4.6 3.8 8.4 8.5 8.4z"/>
	<path id="&lt;Path&gt;" class="s0" d="m422.6 171.6c4.5 0 8.1-3.6 8.1-8.1 0-4.5-3.6-8.2-8.1-8.2-4.5 0-8.2 3.7-8.2 8.2 0 4.5 3.7 8.1 8.2 8.1z"/>
	<path id="&lt;Path&gt;" class="s0" d="m456.5 171.1c4.2 0 7.6-3.4 7.6-7.6 0-4.2-3.4-7.6-7.6-7.6-4.2 0-7.7 3.4-7.7 7.6 0 4.2 3.5 7.6 7.7 7.6z"/>
	<path id="&lt;Path&gt;" class="s0" d="m490.3 170.1c3.7 0 6.7-2.9 6.7-6.6 0-3.7-3-6.7-6.7-6.7-3.6 0-6.6 3-6.6 6.7 0 3.7 3 6.6 6.6 6.6z"/>
	<path id="&lt;Path&gt;" class="s0" d="m524.2 169c3.1 0 5.6-2.5 5.6-5.5 0-3.1-2.5-5.6-5.6-5.6-3 0-5.5 2.5-5.5 5.6 0 3 2.5 5.5 5.5 5.5z"/>
	<path id="&lt;Path&gt;" class="s0" d="m558.1 167.7c2.3 0 4.2-1.9 4.2-4.2 0-2.4-1.9-4.3-4.2-4.3-2.3 0-4.2 1.9-4.2 4.3 0 2.3 1.9 4.2 4.2 4.2z"/>
	<path id="&lt;Path&gt;" class="s0" d="m592 166.2c1.5 0 2.7-1.2 2.7-2.7 0-1.5-1.2-2.8-2.7-2.8-1.5 0-2.7 1.3-2.7 2.8 0 1.5 1.2 2.7 2.7 2.7z"/>
	<path id="&lt;Path&gt;" class="s0" d="m625.9 164.6c0.6 0 1.1-0.5 1.1-1.1 0-0.7-0.5-1.2-1.1-1.2-0.7 0-1.2 0.5-1.2 1.2 0 0.6 0.5 1.1 1.2 1.1z"/>
	<path id="&lt;Path&gt;" class="s0" d="m659.7 163.6q0.1 0 0.1-0.1 0-0.1-0.1-0.1 0 0 0 0.1 0 0.1 0 0.1z"/>
	<path id="&lt;Path&gt;" class="s0" d="m66.8 198.2c0.5 0 0.9-0.4 0.9-0.9 0-0.4-0.4-0.8-0.9-0.8-0.4 0-0.8 0.4-0.8 0.8 0 0.5 0.4 0.9 0.8 0.9z"/>
	<path id="&lt;Path&gt;" class="s0" d="m100.7 200.1c1.5 0 2.7-1.2 2.7-2.8 0-1.5-1.2-2.7-2.7-2.7-1.5 0-2.7 1.2-2.7 2.7 0 1.6 1.2 2.8 2.7 2.8z"/>
	<path id="&lt;Path&gt;" class="s0" d="m134.6 202c2.6 0 4.7-2.1 4.7-4.7 0-2.5-2.1-4.6-4.7-4.6-2.6 0-4.7 2.1-4.7 4.6 0 2.6 2.1 4.7 4.7 4.7z"/>
	<path id="&lt;Path&gt;" class="s0" d="m168.5 203.9c3.6 0 6.5-2.9 6.5-6.6 0-3.6-2.9-6.5-6.5-6.5-3.7 0-6.6 2.9-6.6 6.5 0 3.7 2.9 6.6 6.6 6.6z"/>
	<path id="&lt;Path&gt;" class="s0" d="m202.3 205.5c4.6 0 8.2-3.6 8.2-8.2 0-4.5-3.6-8.1-8.2-8.1-4.5 0-8.1 3.6-8.1 8.1 0 4.6 3.6 8.2 8.1 8.2z"/>
	<path id="&lt;Path&gt;" class="s0" d="m236.2 207c5.4 0 9.7-4.3 9.7-9.7 0-5.3-4.3-9.6-9.7-9.6-5.3 0-9.6 4.3-9.6 9.6 0 5.4 4.3 9.7 9.6 9.7z"/>
	<path id="&lt;Path&gt;" class="s0" d="m270.1 208.2c6 0 10.9-4.8 10.9-10.9 0-6-4.9-10.9-10.9-10.9-6 0-10.9 4.9-10.9 10.9 0 6.1 4.9 10.9 10.9 10.9z"/>
	<path id="&lt;Path&gt;" class="s0" d="m304 209.2c6.5 0 11.8-5.3 11.8-11.9 0-6.5-5.3-11.8-11.8-11.8-6.5 0-11.8 5.3-11.8 11.8 0 6.6 5.3 11.9 11.8 11.9z"/>
	<path id="&lt;Path&gt;" class="s0" d="m337.9 209.8c6.9 0 12.5-5.6 12.5-12.5 0-6.9-5.6-12.4-12.5-12.4-6.9 0-12.5 5.5-12.5 12.4 0 6.9 5.6 12.5 12.5 12.5z"/>
	<path id="&lt;Path&gt;" class="s0" d="m371.8 210c7 0 12.6-5.6 12.6-12.7 0-7-5.6-12.6-12.6-12.6-7.1 0-12.7 5.6-12.7 12.6 0 7.1 5.6 12.7 12.7 12.7z"/>
	<path id="&lt;Path&gt;" class="s0" d="m405.6 209.8c6.9 0 12.5-5.6 12.5-12.5 0-6.9-5.6-12.4-12.5-12.4-6.9 0-12.5 5.5-12.5 12.4 0 6.9 5.6 12.5 12.5 12.5z"/>
	<path id="&lt;Path&gt;" class="s0" d="m439.5 209.3c6.6 0 11.9-5.4 11.9-12 0-6.5-5.3-11.9-11.9-11.9-6.6 0-11.9 5.4-11.9 11.9 0 6.6 5.3 12 11.9 12z"/>
	<path id="&lt;Path&gt;" class="s0" d="m473.4 208.4c6.1 0 11.1-4.9 11.1-11.1 0-6.1-5-11-11.1-11-6.1 0-11.1 4.9-11.1 11 0 6.2 5 11.1 11.1 11.1z"/>
	<path id="&lt;Path&gt;" class="s0" d="m507.3 207.2c5.4 0 9.8-4.4 9.8-9.9 0-5.4-4.4-9.8-9.8-9.8-5.5 0-9.9 4.4-9.9 9.8 0 5.5 4.4 9.9 9.9 9.9z"/>
	<path id="&lt;Path&gt;" class="s0" d="m541.2 205.7c4.6 0 8.3-3.7 8.3-8.4 0-4.6-3.7-8.3-8.3-8.3-4.7 0-8.4 3.7-8.4 8.3 0 4.7 3.7 8.4 8.4 8.4z"/>
	<path id="&lt;Path&gt;" class="s0" d="m575 204.1c3.8 0 6.8-3 6.8-6.8 0-3.7-3-6.7-6.8-6.7-3.7 0-6.7 3-6.7 6.7 0 3.8 3 6.8 6.7 6.8z"/>
	<path id="&lt;Path&gt;" class="s0" d="m608.9 202.2c2.7 0 4.9-2.2 4.9-4.9 0-2.7-2.2-4.8-4.9-4.8-2.7 0-4.9 2.1-4.9 4.8 0 2.7 2.2 4.9 4.9 4.9z"/>
	<path id="&lt;Path&gt;" class="s0" d="m642.8 200.3c1.6 0 2.9-1.3 2.9-3 0-1.6-1.3-2.9-2.9-2.9-1.6 0-2.9 1.3-2.9 2.9 0 1.7 1.3 3 2.9 3z"/>
	<path id="&lt;Path&gt;" class="s0" d="m676.7 198.3c0.5 0 0.9-0.4 0.9-1 0-0.5-0.4-0.9-0.9-0.9-0.5 0-1 0.4-1 0.9 0 0.6 0.5 1 1 1z"/>
	<path id="&lt;Path&gt;" class="s0" d="m16 231.4c0.1 0 0.2-0.1 0.2-0.2 0-0.1-0.1-0.2-0.2-0.2-0.1 0-0.2 0.1-0.2 0.2 0 0.1 0.1 0.2 0.2 0.2z"/>
	<path id="&lt;Path&gt;" class="s0" d="m49.9 233c1 0 1.8-0.8 1.8-1.8 0-1-0.8-1.8-1.8-1.8-1 0-1.8 0.8-1.8 1.8 0 1 0.8 1.8 1.8 1.8z"/>
	<path id="&lt;Path&gt;" class="s0" d="m83.8 235.3c2.2 0 4-1.8 4-4.1 0-2.2-1.8-4-4-4-2.3 0-4.1 1.8-4.1 4 0 2.3 1.8 4.1 4.1 4.1z"/>
	<path id="&lt;Path&gt;" class="s0" d="m117.6 237.5c3.5 0 6.3-2.8 6.3-6.3 0-3.4-2.8-6.3-6.3-6.3-3.4 0-6.3 2.9-6.3 6.3 0 3.5 2.9 6.3 6.3 6.3z"/>
	<path id="&lt;Path&gt;" class="s0" d="m151.5 239.6c4.6 0 8.4-3.8 8.4-8.4 0-4.6-3.8-8.3-8.4-8.3-4.6 0-8.3 3.7-8.3 8.3 0 4.6 3.7 8.4 8.3 8.4z"/>
	<path id="&lt;Path&gt;" class="s0" d="m185.4 241.6c5.7 0 10.3-4.7 10.3-10.4 0-5.7-4.6-10.3-10.3-10.3-5.7 0-10.3 4.6-10.3 10.3 0 5.7 4.6 10.4 10.3 10.4z"/>
	<path id="&lt;Path&gt;" class="s0" d="m219.3 243.4c6.7 0 12.2-5.4 12.2-12.2 0-6.7-5.5-12.2-12.2-12.2-6.8 0-12.2 5.5-12.2 12.2 0 6.8 5.4 12.2 12.2 12.2z"/>
	<path id="&lt;Path&gt;" class="s0" d="m253.2 245.1c7.6 0 13.9-6.2 13.9-13.9 0-7.7-6.3-13.9-13.9-13.9-7.7 0-13.9 6.2-13.9 13.9 0 7.7 6.2 13.9 13.9 13.9z"/>
	<path id="&lt;Path&gt;" class="s0" d="m287.1 246.5c8.4 0 15.3-6.8 15.3-15.3 0-8.4-6.9-15.3-15.3-15.3-8.5 0-15.4 6.9-15.4 15.3 0 8.5 6.9 15.3 15.4 15.3z"/>
	<path id="&lt;Path&gt;" class="s0" d="m320.9 247.5c9 0 16.3-7.3 16.3-16.3 0-8.9-7.3-16.2-16.3-16.2-8.9 0-16.2 7.3-16.2 16.2 0 9 7.3 16.3 16.2 16.3z"/>
	<path id="&lt;Path&gt;" class="s0" d="m354.8 248c9.3 0 16.8-7.5 16.8-16.8 0-9.3-7.5-16.8-16.8-16.8-9.3 0-16.8 7.5-16.8 16.8 0 9.3 7.5 16.8 16.8 16.8z"/>
	<path id="&lt;Path&gt;" class="s0" d="m388.7 248.1c9.3 0 16.9-7.5 16.9-16.9 0-9.3-7.6-16.9-16.9-16.9-9.3 0-16.9 7.6-16.9 16.9 0 9.4 7.6 16.9 16.9 16.9z"/>
	<path id="&lt;Path&gt;" class="s0" d="m422.6 247.6c9 0 16.3-7.3 16.3-16.4 0-9-7.3-16.3-16.3-16.3-9.1 0-16.4 7.3-16.4 16.3 0 9.1 7.3 16.4 16.4 16.4z"/>
	<path id="&lt;Path&gt;" class="s0" d="m456.5 246.6c8.5 0 15.4-6.9 15.4-15.4 0-8.5-6.9-15.4-15.4-15.4-8.6 0-15.5 6.9-15.5 15.4 0 8.5 6.9 15.4 15.5 15.4z"/>
	<path id="&lt;Path&gt;" class="s0" d="m490.3 245.3c7.8 0 14.1-6.3 14.1-14.1 0-7.8-6.3-14.1-14.1-14.1-7.7 0-14.1 6.3-14.1 14.1 0 7.8 6.4 14.1 14.1 14.1z"/>
	<path id="&lt;Path&gt;" class="s0" d="m524.2 243.6c6.9 0 12.4-5.5 12.4-12.4 0-6.8-5.5-12.4-12.4-12.4-6.8 0-12.4 5.6-12.4 12.4 0 6.9 5.6 12.4 12.4 12.4z"/>
	<path id="&lt;Path&gt;" class="s0" d="m558.1 241.8c5.9 0 10.6-4.7 10.6-10.6 0-5.8-4.7-10.6-10.6-10.6-5.9 0-10.6 4.8-10.6 10.6 0 5.9 4.7 10.6 10.6 10.6z"/>
	<path id="&lt;Path&gt;" class="s0" d="m592 239.8c4.7 0 8.5-3.8 8.5-8.6 0-4.7-3.8-8.5-8.5-8.5-4.7 0-8.6 3.8-8.6 8.5 0 4.8 3.9 8.6 8.6 8.6z"/>
	<path id="&lt;Path&gt;" class="s0" d="m625.9 237.7c3.5 0 6.4-2.9 6.4-6.5 0-3.6-2.9-6.5-6.4-6.5-3.6 0-6.5 2.9-6.5 6.5 0 3.6 2.9 6.5 6.5 6.5z"/>
	<path id="&lt;Path&gt;" class="s0" d="m659.7 235.6c2.4 0 4.4-2 4.4-4.4 0-2.4-2-4.3-4.4-4.3-2.3 0-4.3 1.9-4.3 4.3 0 2.4 2 4.4 4.3 4.4z"/>
	<path id="&lt;Path&gt;" class="s0" d="m693.6 233.2c1.1 0 2-0.9 2-2 0-1.1-0.9-1.9-2-1.9-1.1 0-1.9 0.8-1.9 1.9 0 1.1 0.8 2 1.9 2z"/>
	<path id="&lt;Path&gt;" class="s0" d="m32.9 267.3c1.2 0 2.2-1 2.2-2.2 0-1.2-1-2.1-2.2-2.1-1.2 0-2.1 0.9-2.1 2.1 0 1.2 0.9 2.2 2.1 2.2z"/>
	<path id="&lt;Path&gt;" class="s0" d="m66.8 269.7c2.6 0 4.6-2 4.6-4.6 0-2.5-2-4.6-4.6-4.6-2.5 0-4.6 2.1-4.6 4.6 0 2.6 2.1 4.6 4.6 4.6z"/>
	<path id="&lt;Path&gt;" class="s0" d="m100.7 272.2c3.9 0 7-3.2 7-7.1 0-3.9-3.1-7-7-7-3.9 0-7 3.1-7 7 0 3.9 3.1 7.1 7 7.1z"/>
	<path id="&lt;Path&gt;" class="s0" d="m134.6 274.5c5.2 0 9.4-4.2 9.4-9.4 0-5.2-4.2-9.4-9.4-9.4-5.2 0-9.4 4.2-9.4 9.4 0 5.2 4.2 9.4 9.4 9.4z"/>
	<path id="&lt;Path&gt;" class="s0" d="m168.5 276.9c6.5 0 11.7-5.3 11.7-11.8 0-6.5-5.2-11.7-11.7-11.7-6.5 0-11.8 5.2-11.8 11.7 0 6.5 5.3 11.8 11.8 11.8z"/>
	<path id="&lt;Path&gt;" class="s0" d="m202.3 279.1c7.8 0 14-6.3 14-14 0-7.7-6.2-14-14-14-7.7 0-14 6.3-14 14 0 7.7 6.3 14 14 14z"/>
	<path id="&lt;Path&gt;" class="s0" d="m236.2 281.2c8.9 0 16.1-7.2 16.1-16.1 0-8.9-7.2-16.1-16.1-16.1-8.8 0-16 7.2-16 16.1 0 8.9 7.2 16.1 16 16.1z"/>
	<path id="&lt;Path&gt;" class="s0" d="m270.1 283.1c9.9 0 18-8.1 18-18 0-9.9-8.1-17.9-18-17.9-9.9 0-17.9 8-17.9 17.9 0 9.9 8 18 17.9 18z"/>
	<path id="&lt;Path&gt;" class="s0" d="m304 284.5c10.7 0 19.3-8.7 19.3-19.4 0-10.7-8.6-19.3-19.3-19.3-10.7 0-19.4 8.6-19.4 19.3 0 10.7 8.7 19.4 19.4 19.4z"/>
	<path id="&lt;Path&gt;" class="s0" d="m337.9 285.1c11 0 20-8.9 20-20 0-11-9-20-20-20-11.1 0-20 9-20 20 0 11.1 8.9 20 20 20z"/>
	<path id="&lt;Path&gt;" class="s0" d="m371.8 285.3c11.1 0 20.2-9 20.2-20.2 0-11.1-9.1-20.2-20.2-20.2-11.2 0-20.2 9.1-20.2 20.2 0 11.2 9 20.2 20.2 20.2z"/>
	<path id="&lt;Path&gt;" class="s0" d="m405.6 285.2c11.1 0 20.1-9 20.1-20.1 0-11.1-9-20.1-20.1-20.1-11.1 0-20.1 9-20.1 20.1 0 11.1 9 20.1 20.1 20.1z"/>
	<path id="&lt;Path&gt;" class="s0" d="m439.5 284.6c10.8 0 19.5-8.7 19.5-19.5 0-10.7-8.7-19.4-19.5-19.4-10.7 0-19.4 8.7-19.4 19.4 0 10.8 8.7 19.5 19.4 19.5z"/>
	<path id="&lt;Path&gt;" class="s0" d="m473.4 283.2c10 0 18.1-8.1 18.1-18.1 0-10-8.1-18.1-18.1-18.1-10 0-18.1 8.1-18.1 18.1 0 10 8.1 18.1 18.1 18.1z"/>
	<path id="&lt;Path&gt;" class="s0" d="m507.3 281.4c9 0 16.2-7.3 16.2-16.3 0-9-7.2-16.2-16.2-16.2-9 0-16.3 7.2-16.3 16.2 0 9 7.3 16.3 16.3 16.3z"/>
	<path id="&lt;Path&gt;" class="s0" d="m541.2 279.3c7.8 0 14.1-6.4 14.1-14.2 0-7.8-6.3-14.2-14.1-14.2-7.9 0-14.2 6.4-14.2 14.2 0 7.8 6.3 14.2 14.2 14.2z"/>
	<path id="&lt;Path&gt;" class="s0" d="m575 277c6.6 0 12-5.3 12-11.9 0-6.6-5.4-11.9-12-11.9-6.5 0-11.9 5.3-11.9 11.9 0 6.6 5.4 11.9 11.9 11.9z"/>
	<path id="&lt;Path&gt;" class="s0" d="m608.9 274.7c5.3 0 9.6-4.3 9.6-9.6 0-5.3-4.3-9.6-9.6-9.6-5.3 0-9.6 4.3-9.6 9.6 0 5.3 4.3 9.6 9.6 9.6z"/>
	<path id="&lt;Path&gt;" class="s0" d="m642.8 272.3c4 0 7.2-3.2 7.2-7.2 0-4-3.2-7.2-7.2-7.2-4 0-7.2 3.2-7.2 7.2 0 4 3.2 7.2 7.2 7.2z"/>
	<path id="&lt;Path&gt;" class="s0" d="m676.7 270c2.7 0 4.9-2.2 4.9-4.9 0-2.7-2.2-4.9-4.9-4.9-2.7 0-4.9 2.2-4.9 4.9 0 2.7 2.2 4.9 4.9 4.9z"/>
	<path id="&lt;Path&gt;" class="s0" d="m16 300.9c1 0 1.9-0.9 1.9-1.9 0-1-0.9-1.9-1.9-1.9-1 0-1.9 0.9-1.9 1.9 0 1 0.9 1.9 1.9 1.9z"/>
	<path id="&lt;Path&gt;" class="s0" d="m49.9 303.4c2.4 0 4.4-2 4.4-4.4 0-2.4-2-4.4-4.4-4.4-2.5 0-4.4 2-4.4 4.4 0 2.4 1.9 4.4 4.4 4.4z"/>
	<path id="&lt;Path&gt;" class="s0" d="m83.8 305.9c3.8 0 6.9-3.1 6.9-6.9 0-3.8-3.1-7-6.9-7-3.9 0-7 3.2-7 7 0 3.8 3.1 6.9 7 6.9z"/>
	<path id="&lt;Path&gt;" class="s0" d="m117.6 308.5c5.3 0 9.5-4.3 9.5-9.5 0-5.2-4.2-9.5-9.5-9.5-5.2 0-9.4 4.3-9.4 9.5 0 5.2 4.2 9.5 9.4 9.5z"/>
	<path id="&lt;Path&gt;" class="s0" d="m151.5 311c6.7 0 12-5.4 12-12 0-6.6-5.3-12-12-12-6.6 0-12 5.4-12 12 0 6.6 5.4 12 12 12z"/>
	<path id="&lt;Path&gt;" class="s0" d="m185.4 313.6c8 0 14.6-6.6 14.6-14.6 0-8.1-6.6-14.6-14.6-14.6-8 0-14.6 6.5-14.6 14.6 0 8 6.6 14.6 14.6 14.6z"/>
	<path id="&lt;Path&gt;" class="s0" d="m219.3 316c9.4 0 17-7.6 17-17 0-9.4-7.6-17-17-17-9.4 0-17 7.6-17 17 0 9.4 7.6 17 17 17z"/>
	<path id="&lt;Path&gt;" class="s0" d="m253.2 318.3c10.6 0 19.2-8.7 19.2-19.3 0-10.6-8.6-19.3-19.2-19.3-10.7 0-19.3 8.7-19.3 19.3 0 10.6 8.6 19.3 19.3 19.3z"/>
	<path id="&lt;Path&gt;" class="s0" d="m287.1 319.5c11.3 0 20.4-9.2 20.4-20.5 0-11.3-9.1-20.5-20.4-20.5-11.4 0-20.5 9.2-20.5 20.5 0 11.3 9.1 20.5 20.5 20.5z"/>
	<path id="&lt;Path&gt;" class="s0" d="m320.9 319.9c11.6 0 20.9-9.4 20.9-20.9 0-11.5-9.3-20.9-20.9-20.9-11.5 0-20.8 9.4-20.8 20.9 0 11.5 9.3 20.9 20.8 20.9z"/>
	<path id="&lt;Path&gt;" class="s0" d="m354.8 319.9c11.6 0 21-9.3 21-20.9 0-11.6-9.4-21-21-21-11.6 0-20.9 9.4-20.9 21 0 11.6 9.3 20.9 20.9 20.9z"/>
	<path id="&lt;Path&gt;" class="s0" d="m388.7 319.9c11.6 0 20.9-9.3 20.9-20.9 0-11.6-9.3-21-20.9-21-11.6 0-21 9.4-21 21 0 11.6 9.4 20.9 21 20.9z"/>
	<path id="&lt;Path&gt;" class="s0" d="m422.6 319.9c11.5 0 20.9-9.3 20.9-20.9 0-11.6-9.4-21-20.9-21-11.6 0-21 9.4-21 21 0 11.6 9.4 20.9 21 20.9z"/>
	<path id="&lt;Path&gt;" class="s0" d="m456.5 319.6c11.3 0 20.5-9.2 20.5-20.6 0-11.4-9.2-20.6-20.5-20.6-11.4 0-20.6 9.2-20.6 20.6 0 11.4 9.2 20.6 20.6 20.6z"/>
	<path id="&lt;Path&gt;" class="s0" d="m490.3 318.5c10.8 0 19.6-8.7 19.6-19.5 0-10.8-8.8-19.5-19.6-19.5-10.8 0-19.5 8.7-19.5 19.5 0 10.8 8.7 19.5 19.5 19.5z"/>
	<path id="&lt;Path&gt;" class="s0" d="m524.2 316.3c9.6 0 17.3-7.8 17.3-17.3 0-9.6-7.7-17.3-17.3-17.3-9.5 0-17.3 7.7-17.3 17.3 0 9.5 7.8 17.3 17.3 17.3z"/>
	<path id="&lt;Path&gt;" class="s0" d="m558.1 313.8c8.2 0 14.8-6.6 14.8-14.8 0-8.2-6.6-14.9-14.8-14.9-8.2 0-14.8 6.7-14.8 14.9 0 8.2 6.6 14.8 14.8 14.8z"/>
	<path id="&lt;Path&gt;" class="s0" d="m592 311.3c6.8 0 12.3-5.5 12.3-12.3 0-6.8-5.5-12.3-12.3-12.3-6.8 0-12.3 5.5-12.3 12.3 0 6.8 5.5 12.3 12.3 12.3z"/>
	<path id="&lt;Path&gt;" class="s0" d="m625.9 308.8c5.4 0 9.7-4.4 9.7-9.8 0-5.4-4.3-9.8-9.7-9.8-5.4 0-9.8 4.4-9.8 9.8 0 5.4 4.4 9.8 9.8 9.8z"/>
	<path id="&lt;Path&gt;" class="s0" d="m659.7 306.2c4 0 7.3-3.2 7.3-7.2 0-4-3.3-7.2-7.3-7.2-3.9 0-7.2 3.2-7.2 7.2 0 4 3.3 7.2 7.2 7.2z"/>
	<path id="&lt;Path&gt;" class="s0" d="m693.6 303.7c2.6 0 4.7-2.1 4.7-4.7 0-2.6-2.1-4.7-4.7-4.7-2.6 0-4.7 2.1-4.7 4.7 0 2.6 2.1 4.7 4.7 4.7z"/>
	<path id="&lt;Path&gt;" class="s0" d="m32.9 336.4c2 0 3.5-1.6 3.5-3.5 0-1.9-1.5-3.5-3.5-3.5-1.9 0-3.4 1.6-3.4 3.5 0 1.9 1.5 3.5 3.4 3.5z"/>
	<path id="&lt;Path&gt;" class="s0" d="m66.8 339c3.4 0 6.1-2.8 6.1-6.1 0-3.4-2.7-6.1-6.1-6.1-3.4 0-6.1 2.7-6.1 6.1 0 3.3 2.7 6.1 6.1 6.1z"/>
	<path id="&lt;Path&gt;" class="s0" d="m100.7 341.5c4.8 0 8.6-3.9 8.6-8.6 0-4.8-3.8-8.7-8.6-8.7-4.8 0-8.6 3.9-8.6 8.7 0 4.7 3.8 8.6 8.6 8.6z"/>
	<path id="&lt;Path&gt;" class="s0" d="m134.6 344.1c6.2 0 11.3-5 11.3-11.2 0-6.3-5.1-11.3-11.3-11.3-6.2 0-11.3 5-11.3 11.3 0 6.2 5.1 11.2 11.3 11.2z"/>
	<path id="&lt;Path&gt;" class="s0" d="m168.5 346.8c7.6 0 13.9-6.2 13.9-13.9 0-7.7-6.3-13.9-13.9-13.9-7.7 0-13.9 6.2-13.9 13.9 0 7.7 6.2 13.9 13.9 13.9z"/>
	<path id="&lt;Path&gt;" class="s0" d="m202.3 349.4c9.2 0 16.6-7.4 16.6-16.5 0-9.2-7.4-16.6-16.6-16.6-9.1 0-16.5 7.4-16.5 16.6 0 9.1 7.4 16.5 16.5 16.5z"/>
	<path id="&lt;Path&gt;" class="s0" d="m236.2 351.9c10.6 0 19.1-8.5 19.1-19 0-10.6-8.5-19.1-19.1-19.1-10.5 0-19 8.5-19 19.1 0 10.5 8.5 19 19 19z"/>
	<path id="&lt;Path&gt;" class="s0" d="m270.1 353.4c11.3 0 20.5-9.2 20.5-20.5 0-11.3-9.2-20.5-20.5-20.5-11.3 0-20.5 9.2-20.5 20.5 0 11.3 9.2 20.5 20.5 20.5z"/>
	<path id="&lt;Path&gt;" class="s0" d="m304 353.8c11.6 0 20.9-9.4 20.9-20.9 0-11.6-9.3-21-20.9-21-11.6 0-21 9.4-21 21 0 11.5 9.4 20.9 21 20.9z"/>
	<path id="&lt;Path&gt;" class="s0" d="m337.9 353.8c11.5 0 20.9-9.4 20.9-20.9 0-11.6-9.4-21-20.9-21-11.6 0-21 9.4-21 21 0 11.5 9.4 20.9 21 20.9z"/>
	<path id="&lt;Path&gt;" class="s0" d="m371.8 353.8c11.5 0 20.9-9.4 20.9-20.9 0-11.6-9.4-21-20.9-21-11.6 0-21 9.4-21 21 0 11.5 9.4 20.9 21 20.9z"/>
	<path id="&lt;Path&gt;" class="s0" d="m405.6 353.8c11.6 0 21-9.4 21-20.9 0-11.6-9.4-21-21-21-11.5 0-20.9 9.4-20.9 21 0 11.5 9.4 20.9 20.9 20.9z"/>
	<path id="&lt;Path&gt;" class="s0" d="m439.5 353.8c11.6 0 21-9.4 21-20.9 0-11.6-9.4-21-21-21-11.6 0-20.9 9.4-20.9 21 0 11.5 9.3 20.9 20.9 20.9z"/>
	<path id="&lt;Path&gt;" class="s0" d="m473.4 353.4c11.4 0 20.6-9.2 20.6-20.5 0-11.4-9.2-20.6-20.6-20.6-11.4 0-20.6 9.2-20.6 20.6 0 11.3 9.2 20.5 20.6 20.5z"/>
	<path id="&lt;Path&gt;" class="s0" d="m507.3 352.1c10.6 0 19.2-8.6 19.2-19.2 0-10.7-8.6-19.3-19.2-19.3-10.7 0-19.3 8.6-19.3 19.3 0 10.6 8.6 19.2 19.3 19.2z"/>
	<path id="&lt;Path&gt;" class="s0" d="m541.2 349.6c9.2 0 16.7-7.5 16.7-16.7 0-9.3-7.5-16.7-16.7-16.7-9.3 0-16.8 7.4-16.8 16.7 0 9.2 7.5 16.7 16.8 16.7z"/>
	<path id="&lt;Path&gt;" class="s0" d="m575 347.1c7.9 0 14.2-6.4 14.2-14.2 0-7.9-6.3-14.2-14.2-14.2-7.8 0-14.1 6.3-14.1 14.2 0 7.8 6.3 14.2 14.1 14.2z"/>
	<path id="&lt;Path&gt;" class="s0" d="m608.9 344.4c6.4 0 11.6-5.1 11.6-11.5 0-6.4-5.2-11.6-11.6-11.6-6.4 0-11.5 5.2-11.5 11.6 0 6.4 5.1 11.5 11.5 11.5z"/>
	<path id="&lt;Path&gt;" class="s0" d="m642.8 341.8c4.9 0 8.9-4 8.9-8.9 0-5-4-9-8.9-9-4.9 0-8.9 4-8.9 9 0 4.9 4 8.9 8.9 8.9z"/>
	<path id="&lt;Path&gt;" class="s0" d="m676.7 339.3c3.5 0 6.4-2.9 6.4-6.4 0-3.6-2.9-6.4-6.4-6.4-3.5 0-6.4 2.8-6.4 6.4 0 3.5 2.9 6.4 6.4 6.4z"/>
	<path id="&lt;Path&gt;" class="s0" d="m16 368.6c1 0 1.9-0.8 1.9-1.8 0-1.1-0.9-1.9-1.9-1.9-1 0-1.9 0.8-1.9 1.9 0 1 0.9 1.8 1.9 1.8z"/>
	<path id="&lt;Path&gt;" class="s0" d="m49.9 371.3c2.5 0 4.5-2.1 4.5-4.5 0-2.5-2-4.6-4.5-4.6-2.5 0-4.5 2.1-4.5 4.6 0 2.4 2 4.5 4.5 4.5z"/>
	<path id="&lt;Path&gt;" class="s0" d="m83.8 373.8c3.9 0 7-3.2 7-7 0-3.9-3.1-7.1-7-7.1-3.9 0-7.1 3.2-7.1 7.1 0 3.8 3.2 7 7.1 7z"/>
	<path id="&lt;Path&gt;" class="s0" d="m117.6 376.3c5.3 0 9.6-4.3 9.6-9.5 0-5.3-4.3-9.6-9.6-9.6-5.3 0-9.5 4.3-9.5 9.6 0 5.2 4.2 9.5 9.5 9.5z"/>
	<path id="&lt;Path&gt;" class="s0" d="m151.5 378.9c6.7 0 12.1-5.5 12.1-12.1 0-6.7-5.4-12.2-12.1-12.2-6.7 0-12.1 5.5-12.1 12.2 0 6.6 5.4 12.1 12.1 12.1z"/>
	<path id="&lt;Path&gt;" class="s0" d="m185.4 381.4c8.1 0 14.7-6.5 14.7-14.6 0-8.1-6.6-14.7-14.7-14.7-8.1 0-14.7 6.6-14.7 14.7 0 8.1 6.6 14.6 14.7 14.6z"/>
	<path id="&lt;Path&gt;" class="s0" d="m219.3 383.9c9.5 0 17.2-7.6 17.2-17.1 0-9.5-7.7-17.2-17.2-17.2-9.5 0-17.2 7.7-17.2 17.2 0 9.5 7.7 17.1 17.2 17.1z"/>
	<path id="&lt;Path&gt;" class="s0" d="m253.2 386.2c10.7 0 19.4-8.7 19.4-19.4 0-10.8-8.7-19.5-19.4-19.5-10.8 0-19.5 8.7-19.5 19.5 0 10.7 8.7 19.4 19.5 19.4z"/>
	<path id="&lt;Path&gt;" class="s0" d="m287.1 387.3c11.3 0 20.5-9.2 20.5-20.5 0-11.4-9.2-20.6-20.5-20.6-11.4 0-20.6 9.2-20.6 20.6 0 11.3 9.2 20.5 20.6 20.5z"/>
	<path id="&lt;Path&gt;" class="s0" d="m320.9 387.7c11.6 0 21-9.4 21-20.9 0-11.6-9.4-21-21-21-11.5 0-20.9 9.4-20.9 21 0 11.5 9.4 20.9 20.9 20.9z"/>
	<path id="&lt;Path&gt;" class="s0" d="m354.8 387.7c11.6 0 21-9.4 21-20.9 0-11.6-9.4-21-21-21-11.6 0-20.9 9.4-20.9 21 0 11.5 9.3 20.9 20.9 20.9z"/>
	<path id="&lt;Path&gt;" class="s0" d="m388.7 387.7c11.6 0 20.9-9.4 20.9-20.9 0-11.6-9.3-21-20.9-21-11.6 0-21 9.4-21 21 0 11.5 9.4 20.9 21 20.9z"/>
	<path id="&lt;Path&gt;" class="s0" d="m422.6 387.7c11.5 0 20.9-9.4 20.9-20.9 0-11.6-9.4-21-20.9-21-11.6 0-21 9.4-21 21 0 11.5 9.4 20.9 21 20.9z"/>
	<path id="&lt;Path&gt;" class="s0" d="m456.5 387.4c11.4 0 20.6-9.2 20.6-20.6 0-11.5-9.2-20.7-20.6-20.7-11.5 0-20.7 9.2-20.7 20.7 0 11.4 9.2 20.6 20.7 20.6z"/>
	<path id="&lt;Path&gt;" class="s0" d="m490.3 386.4c10.9 0 19.7-8.8 19.7-19.6 0-10.9-8.8-19.7-19.7-19.7-10.8 0-19.6 8.8-19.6 19.7 0 10.8 8.8 19.6 19.6 19.6z"/>
	<path id="&lt;Path&gt;" class="s0" d="m524.2 384.1c9.6 0 17.4-7.7 17.4-17.3 0-9.6-7.8-17.4-17.4-17.4-9.6 0-17.4 7.8-17.4 17.4 0 9.6 7.8 17.3 17.4 17.3z"/>
	<path id="&lt;Path&gt;" class="s0" d="m558.1 381.7c8.3 0 14.9-6.7 14.9-14.9 0-8.3-6.6-15-14.9-15-8.2 0-14.9 6.7-14.9 15 0 8.2 6.7 14.9 14.9 14.9z"/>
	<path id="&lt;Path&gt;" class="s0" d="m592 379.2c6.8 0 12.4-5.6 12.4-12.4 0-6.9-5.6-12.4-12.4-12.4-6.9 0-12.4 5.5-12.4 12.4 0 6.8 5.5 12.4 12.4 12.4z"/>
	<path id="&lt;Path&gt;" class="s0" d="m625.9 376.6c5.4 0 9.8-4.4 9.8-9.8 0-5.5-4.4-9.9-9.8-9.9-5.5 0-9.9 4.4-9.9 9.9 0 5.4 4.4 9.8 9.9 9.8z"/>
	<path id="&lt;Path&gt;" class="s0" d="m659.7 374.1c4.1 0 7.4-3.3 7.4-7.3 0-4.1-3.3-7.4-7.4-7.4-4 0-7.3 3.3-7.3 7.4 0 4 3.3 7.3 7.3 7.3z"/>
	<path id="&lt;Path&gt;" class="s0" d="m693.6 371.5c2.7 0 4.8-2.1 4.8-4.7 0-2.7-2.1-4.8-4.8-4.8-2.6 0-4.8 2.1-4.8 4.8 0 2.6 2.2 4.7 4.8 4.7z"/>
	<path id="&lt;Path&gt;" class="s0" d="m32.9 402.9c1.3 0 2.3-1 2.3-2.3 0-1.2-1-2.2-2.3-2.2-1.2 0-2.2 1-2.2 2.2 0 1.3 1 2.3 2.2 2.3z"/>
	<path id="&lt;Path&gt;" class="s0" d="m66.8 405.3c2.6 0 4.7-2.1 4.7-4.7 0-2.6-2.1-4.7-4.7-4.7-2.6 0-4.7 2.1-4.7 4.7 0 2.6 2.1 4.7 4.7 4.7z"/>
	<path id="&lt;Path&gt;" class="s0" d="m100.7 407.8c3.9 0 7.1-3.2 7.1-7.2 0-3.9-3.2-7.1-7.1-7.1-3.9 0-7.1 3.2-7.1 7.1 0 4 3.2 7.2 7.1 7.2z"/>
	<path id="&lt;Path&gt;" class="s0" d="m134.6 410.1c5.2 0 9.5-4.2 9.5-9.5 0-5.2-4.3-9.5-9.5-9.5-5.3 0-9.5 4.3-9.5 9.5 0 5.3 4.2 9.5 9.5 9.5z"/>
	<path id="&lt;Path&gt;" class="s0" d="m168.5 412.5c6.5 0 11.8-5.3 11.8-11.9 0-6.5-5.3-11.8-11.8-11.8-6.6 0-11.9 5.3-11.9 11.8 0 6.6 5.3 11.9 11.9 11.9z"/>
	<path id="&lt;Path&gt;" class="s0" d="m202.3 414.8c7.9 0 14.2-6.3 14.2-14.2 0-7.8-6.3-14.1-14.2-14.1-7.8 0-14.1 6.3-14.1 14.1 0 7.9 6.3 14.2 14.1 14.2z"/>
	<path id="&lt;Path&gt;" class="s0" d="m236.2 417c9.1 0 16.4-7.3 16.4-16.4 0-9-7.3-16.3-16.4-16.3-9 0-16.3 7.3-16.3 16.3 0 9.1 7.3 16.4 16.3 16.4z"/>
	<path id="&lt;Path&gt;" class="s0" d="m270.1 418.9c10.1 0 18.2-8.2 18.2-18.3 0-10-8.1-18.2-18.2-18.2-10.1 0-18.2 8.2-18.2 18.2 0 10.1 8.1 18.3 18.2 18.3z"/>
	<path id="&lt;Path&gt;" class="s0" d="m304 420.2c10.8 0 19.5-8.8 19.5-19.6 0-10.8-8.7-19.5-19.5-19.5-10.8 0-19.6 8.7-19.6 19.5 0 10.8 8.8 19.6 19.6 19.6z"/>
	<path id="&lt;Path&gt;" class="s0" d="m337.9 420.8c11.1 0 20.2-9 20.2-20.2 0-11.1-9.1-20.2-20.2-20.2-11.2 0-20.2 9.1-20.2 20.2 0 11.2 9 20.2 20.2 20.2z"/>
	<path id="&lt;Path&gt;" class="s0" d="m371.8 421c11.2 0 20.3-9.1 20.3-20.4 0-11.2-9.1-20.4-20.3-20.4-11.3 0-20.4 9.2-20.4 20.4 0 11.3 9.1 20.4 20.4 20.4z"/>
	<path id="&lt;Path&gt;" class="s0" d="m405.6 420.8c11.2 0 20.2-9 20.2-20.2 0-11.1-9-20.2-20.2-20.2-11.1 0-20.2 9.1-20.2 20.2 0 11.2 9.1 20.2 20.2 20.2z"/>
	<path id="&lt;Path&gt;" class="s0" d="m439.5 420.3c10.9 0 19.7-8.8 19.7-19.7 0-10.8-8.8-19.6-19.7-19.6-10.8 0-19.6 8.8-19.6 19.6 0 10.9 8.8 19.7 19.6 19.7z"/>
	<path id="&lt;Path&gt;" class="s0" d="m473.4 419.1c10.2 0 18.4-8.3 18.4-18.5 0-10.1-8.2-18.4-18.4-18.4-10.2 0-18.4 8.3-18.4 18.4 0 10.2 8.2 18.5 18.4 18.5z"/>
	<path id="&lt;Path&gt;" class="s0" d="m507.3 417.2c9.1 0 16.5-7.4 16.5-16.6 0-9.1-7.4-16.5-16.5-16.5-9.2 0-16.6 7.4-16.6 16.5 0 9.2 7.4 16.6 16.6 16.6z"/>
	<path id="&lt;Path&gt;" class="s0" d="m541.2 415c7.9 0 14.3-6.4 14.3-14.4 0-7.9-6.4-14.3-14.3-14.3-8 0-14.4 6.4-14.4 14.3 0 8 6.4 14.4 14.4 14.4z"/>
	<path id="&lt;Path&gt;" class="s0" d="m575 412.8c6.7 0 12.2-5.5 12.2-12.2 0-6.7-5.5-12.1-12.2-12.1-6.7 0-12.1 5.4-12.1 12.1 0 6.7 5.4 12.2 12.1 12.2z"/>
	<path id="&lt;Path&gt;" class="s0" d="m608.9 410.4c5.4 0 9.8-4.4 9.8-9.8 0-5.4-4.4-9.7-9.8-9.7-5.4 0-9.7 4.3-9.7 9.7 0 5.4 4.3 9.8 9.7 9.8z"/>
	<path id="&lt;Path&gt;" class="s0" d="m642.8 408.1c4.1 0 7.4-3.4 7.4-7.5 0-4.1-3.3-7.4-7.4-7.4-4.1 0-7.4 3.3-7.4 7.4 0 4.1 3.3 7.5 7.4 7.5z"/>
	<path id="&lt;Path&gt;" class="s0" d="m676.7 405.6c2.7 0 5-2.2 5-5 0-2.7-2.3-4.9-5-4.9-2.8 0-5 2.2-5 4.9 0 2.8 2.2 5 5 5z"/>
	<path id="&lt;Path&gt;" class="s0" d="m16 434.7c0.1 0 0.2-0.1 0.2-0.2 0-0.1-0.1-0.2-0.2-0.2-0.1 0-0.2 0.1-0.2 0.2 0 0.1 0.1 0.2 0.2 0.2z"/>
	<path id="&lt;Path&gt;" class="s0" d="m49.9 436.4c1 0 1.9-0.8 1.9-1.9 0-1-0.9-1.9-1.9-1.9-1.1 0-1.9 0.9-1.9 1.9 0 1.1 0.8 1.9 1.9 1.9z"/>
	<path id="&lt;Path&gt;" class="s0" d="m83.8 438.7c2.3 0 4.2-1.8 4.2-4.2 0-2.3-1.9-4.2-4.2-4.2-2.4 0-4.3 1.9-4.3 4.2 0 2.4 1.9 4.2 4.3 4.2z"/>
	<path id="&lt;Path&gt;" class="s0" d="m117.6 440.9c3.6 0 6.4-2.9 6.4-6.4 0-3.5-2.8-6.4-6.4-6.4-3.5 0-6.3 2.9-6.3 6.4 0 3.5 2.8 6.4 6.3 6.4z"/>
	<path id="&lt;Path&gt;" class="s0" d="m151.5 443.1c4.7 0 8.6-3.9 8.6-8.6 0-4.7-3.9-8.5-8.6-8.5-4.7 0-8.5 3.8-8.5 8.5 0 4.7 3.8 8.6 8.5 8.6z"/>
	<path id="&lt;Path&gt;" class="s0" d="m185.4 445.1c5.9 0 10.6-4.7 10.6-10.6 0-5.8-4.7-10.6-10.6-10.6-5.9 0-10.6 4.8-10.6 10.6 0 5.9 4.7 10.6 10.6 10.6z"/>
	<path id="&lt;Path&gt;" class="s0" d="m219.3 447c6.9 0 12.5-5.6 12.5-12.5 0-6.9-5.6-12.5-12.5-12.5-6.9 0-12.5 5.6-12.5 12.5 0 6.9 5.6 12.5 12.5 12.5z"/>
	<path id="&lt;Path&gt;" class="s0" d="m253.2 448.7c7.8 0 14.2-6.3 14.2-14.2 0-7.8-6.4-14.2-14.2-14.2-7.9 0-14.2 6.4-14.2 14.2 0 7.9 6.3 14.2 14.2 14.2z"/>
	<path id="&lt;Path&gt;" class="s0" d="m287.1 450.1c8.6 0 15.5-7 15.5-15.6 0-8.6-6.9-15.6-15.5-15.6-8.7 0-15.6 7-15.6 15.6 0 8.6 6.9 15.6 15.6 15.6z"/>
	<path id="&lt;Path&gt;" class="s0" d="m320.9 451.1c9.2 0 16.7-7.4 16.7-16.6 0-9.2-7.5-16.6-16.7-16.6-9.2 0-16.6 7.4-16.6 16.6 0 9.2 7.4 16.6 16.6 16.6z"/>
	<path id="&lt;Path&gt;" class="s0" d="m354.8 451.7c9.5 0 17.2-7.7 17.2-17.2 0-9.5-7.7-17.2-17.2-17.2-9.5 0-17.2 7.7-17.2 17.2 0 9.5 7.7 17.2 17.2 17.2z"/>
	<path id="&lt;Path&gt;" class="s0" d="m388.7 451.7c9.5 0 17.2-7.7 17.2-17.2 0-9.5-7.7-17.2-17.2-17.2-9.5 0-17.2 7.7-17.2 17.2 0 9.5 7.7 17.2 17.2 17.2z"/>
	<path id="&lt;Path&gt;" class="s0" d="m422.6 451.2c9.2 0 16.7-7.4 16.7-16.7 0-9.2-7.5-16.7-16.7-16.7-9.3 0-16.7 7.5-16.7 16.7 0 9.3 7.4 16.7 16.7 16.7z"/>
	<path id="&lt;Path&gt;" class="s0" d="m456.5 450.2c8.6 0 15.6-7 15.6-15.7 0-8.6-7-15.7-15.6-15.7-8.7 0-15.7 7.1-15.7 15.7 0 8.7 7 15.7 15.7 15.7z"/>
	<path id="&lt;Path&gt;" class="s0" d="m490.3 448.9c8 0 14.4-6.4 14.4-14.4 0-7.9-6.4-14.4-14.4-14.4-7.9 0-14.3 6.5-14.3 14.4 0 8 6.4 14.4 14.3 14.4z"/>
	<path id="&lt;Path&gt;" class="s0" d="m524.2 447.2c7 0 12.7-5.7 12.7-12.7 0-7-5.7-12.7-12.7-12.7-7 0-12.7 5.7-12.7 12.7 0 7 5.7 12.7 12.7 12.7z"/>
	<path id="&lt;Path&gt;" class="s0" d="m558.1 445.3c6 0 10.8-4.8 10.8-10.8 0-5.9-4.8-10.8-10.8-10.8-6 0-10.8 4.9-10.8 10.8 0 6 4.8 10.8 10.8 10.8z"/>
	<path id="&lt;Path&gt;" class="s0" d="m592 443.3c4.8 0 8.7-4 8.7-8.8 0-4.8-3.9-8.7-8.7-8.7-4.8 0-8.8 3.9-8.8 8.7 0 4.8 4 8.8 8.8 8.8z"/>
	<path id="&lt;Path&gt;" class="s0" d="m625.9 441.2c3.6 0 6.6-3 6.6-6.7 0-3.7-3-6.7-6.6-6.7-3.7 0-6.7 3-6.7 6.7 0 3.7 3 6.7 6.7 6.7z"/>
	<path id="&lt;Path&gt;" class="s0" d="m659.7 438.9c2.5 0 4.5-1.9 4.5-4.4 0-2.4-2-4.4-4.5-4.4-2.4 0-4.4 2-4.4 4.4 0 2.5 2 4.4 4.4 4.4z"/>
	<path id="&lt;Path&gt;" class="s0" d="m693.6 436.7c1.2 0 2.2-1 2.2-2.2 0-1.2-1-2.1-2.2-2.1-1.2 0-2.1 0.9-2.1 2.1 0 1.2 0.9 2.2 2.1 2.2z"/>
	<path id="&lt;Path&gt;" class="s0" d="m66.8 469.3c0.5 0 1-0.4 1-0.9 0-0.5-0.5-0.9-1-0.9-0.5 0-0.9 0.4-0.9 0.9 0 0.5 0.4 0.9 0.9 0.9z"/>
	<path id="&lt;Path&gt;" class="s0" d="m100.7 471.3c1.6 0 2.9-1.3 2.9-2.9 0-1.6-1.3-2.9-2.9-2.9-1.6 0-2.9 1.3-2.9 2.9 0 1.6 1.3 2.9 2.9 2.9z"/>
	<path id="&lt;Path&gt;" class="s0" d="m134.6 473.4c2.7 0 5-2.2 5-5 0-2.7-2.3-5-5-5-2.8 0-5 2.3-5 5 0 2.8 2.2 5 5 5z"/>
	<path id="&lt;Path&gt;" class="s0" d="m168.5 475.2c3.7 0 6.7-3.1 6.7-6.8 0-3.7-3-6.8-6.7-6.8-3.8 0-6.8 3.1-6.8 6.8 0 3.7 3 6.8 6.8 6.8z"/>
	<path id="&lt;Path&gt;" class="s0" d="m202.3 476.9c4.7 0 8.5-3.8 8.5-8.5 0-4.7-3.8-8.5-8.5-8.5-4.6 0-8.4 3.8-8.4 8.5 0 4.7 3.8 8.5 8.4 8.5z"/>
	<path id="&lt;Path&gt;" class="s0" d="m236.2 478.4c5.5 0 10-4.5 10-10 0-5.5-4.5-10-10-10-5.5 0-9.9 4.5-9.9 10 0 5.5 4.4 10 9.9 10z"/>
	<path id="&lt;Path&gt;" class="s0" d="m270.1 479.7c6.2 0 11.3-5.1 11.3-11.3 0-6.2-5.1-11.3-11.3-11.3-6.2 0-11.3 5.1-11.3 11.3 0 6.2 5.1 11.3 11.3 11.3z"/>
	<path id="&lt;Path&gt;" class="s0" d="m304 480.6c6.7 0 12.2-5.5 12.2-12.2 0-6.7-5.5-12.2-12.2-12.2-6.8 0-12.2 5.5-12.2 12.2 0 6.7 5.4 12.2 12.2 12.2z"/>
	<path id="&lt;Path&gt;" class="s0" d="m337.9 481.2c7 0 12.7-5.7 12.7-12.8 0-7.1-5.7-12.8-12.7-12.8-7.1 0-12.8 5.7-12.8 12.8 0 7.1 5.7 12.8 12.8 12.8z"/>
	<path id="&lt;Path&gt;" class="s0" d="m371.8 481.5c7.2 0 13-5.9 13-13.1 0-7.2-5.8-13.1-13-13.1-7.3 0-13.1 5.9-13.1 13.1 0 7.2 5.8 13.1 13.1 13.1z"/>
	<path id="&lt;Path&gt;" class="s0" d="m405.6 481.3c7.1 0 12.9-5.8 12.9-12.9 0-7.1-5.8-12.9-12.9-12.9-7.1 0-12.8 5.8-12.8 12.9 0 7.1 5.7 12.9 12.8 12.9z"/>
	<path id="&lt;Path&gt;" class="s0" d="m439.5 480.7c6.8 0 12.3-5.5 12.3-12.3 0-6.8-5.5-12.3-12.3-12.3-6.8 0-12.3 5.5-12.3 12.3 0 6.8 5.5 12.3 12.3 12.3z"/>
	<path id="&lt;Path&gt;" class="s0" d="m473.4 479.8c6.3 0 11.4-5.1 11.4-11.4 0-6.3-5.1-11.4-11.4-11.4-6.3 0-11.4 5.1-11.4 11.4 0 6.3 5.1 11.4 11.4 11.4z"/>
	<path id="&lt;Path&gt;" class="s0" d="m507.3 478.5c5.6 0 10.1-4.5 10.1-10.1 0-5.6-4.5-10.1-10.1-10.1-5.6 0-10.2 4.5-10.2 10.1 0 5.6 4.6 10.1 10.2 10.1z"/>
	<path id="&lt;Path&gt;" class="s0" d="m541.2 477c4.7 0 8.6-3.8 8.6-8.6 0-4.8-3.9-8.6-8.6-8.6-4.8 0-8.7 3.8-8.7 8.6 0 4.8 3.9 8.6 8.7 8.6z"/>
	<path id="&lt;Path&gt;" class="s0" d="m575 475.4c3.9 0 7-3.2 7-7 0-3.8-3.1-7-7-7-3.8 0-6.9 3.2-6.9 7 0 3.8 3.1 7 6.9 7z"/>
	<path id="&lt;Path&gt;" class="s0" d="m608.9 473.6c2.9 0 5.2-2.3 5.2-5.2 0-2.9-2.3-5.2-5.2-5.2-2.8 0-5.1 2.3-5.1 5.2 0 2.9 2.3 5.2 5.1 5.2z"/>
	<path id="&lt;Path&gt;" class="s0" d="m642.8 471.6c1.8 0 3.2-1.4 3.2-3.2 0-1.8-1.4-3.2-3.2-3.2-1.8 0-3.2 1.4-3.2 3.2 0 1.8 1.4 3.2 3.2 3.2z"/>
	<path id="&lt;Path&gt;" class="s0" d="m676.7 469.5c0.6 0 1.1-0.5 1.1-1.1 0-0.6-0.5-1.1-1.1-1.1-0.6 0-1.1 0.5-1.1 1.1 0 0.6 0.5 1.1 1.1 1.1z"/>
	<path id="&lt;Path&gt;" class="s0" d="m83.8 502.5c0.1 0 0.1-0.1 0.1-0.2 0-0.1 0-0.2-0.1-0.2-0.1 0-0.2 0.1-0.2 0.2 0 0.1 0.1 0.2 0.2 0.2z"/>
	<path id="&lt;Path&gt;" class="s0" d="m117.6 503.4c0.7 0 1.2-0.5 1.2-1.1 0-0.6-0.5-1.1-1.2-1.1-0.6 0-1.1 0.5-1.1 1.1 0 0.6 0.5 1.1 1.1 1.1z"/>
	<path id="&lt;Path&gt;" class="s0" d="m151.5 505.1c1.6 0 2.8-1.3 2.8-2.8 0-1.6-1.2-2.8-2.8-2.8-1.5 0-2.8 1.2-2.8 2.8 0 1.5 1.3 2.8 2.8 2.8z"/>
	<path id="&lt;Path&gt;" class="s0" d="m185.4 506.6c2.4 0 4.3-1.9 4.3-4.3 0-2.4-1.9-4.3-4.3-4.3-2.4 0-4.3 1.9-4.3 4.3 0 2.4 1.9 4.3 4.3 4.3z"/>
	<path id="&lt;Path&gt;" class="s0" d="m219.3 508c3.2 0 5.7-2.6 5.7-5.7 0-3.2-2.5-5.7-5.7-5.7-3.2 0-5.7 2.5-5.7 5.7 0 3.1 2.5 5.7 5.7 5.7z"/>
	<path id="&lt;Path&gt;" class="s0" d="m253.2 509.2c3.8 0 6.9-3.1 6.9-6.9 0-3.9-3.1-7-6.9-7-3.9 0-7 3.1-7 7 0 3.8 3.1 6.9 7 6.9z"/>
	<path id="&lt;Path&gt;" class="s0" d="m287.1 510.1c4.3 0 7.7-3.5 7.7-7.8 0-4.3-3.4-7.8-7.7-7.8-4.4 0-7.8 3.5-7.8 7.8 0 4.3 3.4 7.8 7.8 7.8z"/>
	<path id="&lt;Path&gt;" class="s0" d="m320.9 510.7c4.7 0 8.5-3.7 8.5-8.4 0-4.7-3.8-8.5-8.5-8.5-4.6 0-8.4 3.8-8.4 8.5 0 4.7 3.8 8.4 8.4 8.4z"/>
	<path id="&lt;Path&gt;" class="s0" d="m354.8 511.1c4.9 0 8.8-3.9 8.8-8.8 0-4.9-3.9-8.8-8.8-8.8-4.9 0-8.8 3.9-8.8 8.8 0 4.9 3.9 8.8 8.8 8.8z"/>
	<path id="&lt;Path&gt;" class="s0" d="m388.7 511.1c4.9 0 8.8-3.9 8.8-8.8 0-4.9-3.9-8.8-8.8-8.8-4.9 0-8.8 3.9-8.8 8.8 0 4.9 3.9 8.8 8.8 8.8z"/>
	<path id="&lt;Path&gt;" class="s0" d="m422.6 510.8c4.7 0 8.5-3.8 8.5-8.5 0-4.7-3.8-8.6-8.5-8.6-4.7 0-8.6 3.9-8.6 8.6 0 4.7 3.9 8.5 8.6 8.5z"/>
	<path id="&lt;Path&gt;" class="s0" d="m456.5 510.2c4.3 0 7.8-3.6 7.8-7.9 0-4.4-3.5-7.9-7.8-7.9-4.4 0-7.9 3.5-7.9 7.9 0 4.3 3.5 7.9 7.9 7.9z"/>
	<path id="&lt;Path&gt;" class="s0" d="m490.3 509.3c3.9 0 7.1-3.1 7.1-7 0-3.9-3.2-7.1-7.1-7.1-3.9 0-7 3.2-7 7.1 0 3.9 3.1 7 7 7z"/>
	<path id="&lt;Path&gt;" class="s0" d="m524.2 508.2c3.3 0 5.9-2.6 5.9-5.9 0-3.3-2.6-5.9-5.9-5.9-3.2 0-5.9 2.6-5.9 5.9 0 3.3 2.7 5.9 5.9 5.9z"/>
	<path id="&lt;Path&gt;" class="s0" d="m558.1 506.8c2.5 0 4.5-2 4.5-4.5 0-2.5-2-4.5-4.5-4.5-2.5 0-4.5 2-4.5 4.5 0 2.5 2 4.5 4.5 4.5z"/>
	<path id="&lt;Path&gt;" class="s0" d="m592 505.2c1.6 0 2.9-1.3 2.9-2.9 0-1.6-1.3-2.9-2.9-2.9-1.6 0-2.9 1.3-2.9 2.9 0 1.6 1.3 2.9 2.9 2.9z"/>
	<path id="&lt;Path&gt;" class="s0" d="m625.9 503.6c0.7 0 1.3-0.6 1.3-1.3 0-0.7-0.6-1.3-1.3-1.3-0.8 0-1.3 0.6-1.3 1.3 0 0.7 0.5 1.3 1.3 1.3z"/>
	<path id="&lt;Path&gt;" class="s0" d="m659.7 502.5c0.2 0 0.2-0.1 0.2-0.2 0-0.1 0-0.2-0.2-0.2-0.1 0-0.1 0.1-0.1 0.2 0 0.1 0 0.2 0.1 0.2z"/>
	<path id="&lt;Path&gt;" class="s0" d="m134.6 536.3q0.1-0.1 0.1-0.1 0-0.1-0.1-0.1-0.1 0-0.1 0.1 0 0 0.1 0.1z"/>
	<path id="&lt;Path&gt;" class="s0" d="m168.5 536.7c0.3 0 0.5-0.2 0.5-0.5 0-0.3-0.2-0.6-0.5-0.6-0.3 0-0.6 0.3-0.6 0.6 0 0.3 0.3 0.5 0.6 0.5z"/>
	<path id="&lt;Path&gt;" class="s0" d="m202.3 537.7c0.9 0 1.5-0.7 1.5-1.5 0-0.9-0.6-1.5-1.5-1.5-0.8 0-1.5 0.6-1.5 1.5 0 0.8 0.7 1.5 1.5 1.5z"/>
	<path id="&lt;Path&gt;" class="s0" d="m236.2 538.7c1.4 0 2.6-1.1 2.6-2.5 0-1.4-1.2-2.6-2.6-2.6-1.4 0-2.5 1.2-2.5 2.6 0 1.4 1.1 2.5 2.5 2.5z"/>
	<path id="&lt;Path&gt;" class="s0" d="m270.1 539.6c1.9 0 3.5-1.5 3.5-3.4 0-2-1.6-3.5-3.5-3.5-1.9 0-3.5 1.5-3.5 3.5 0 1.9 1.6 3.4 3.5 3.4z"/>
	<path id="&lt;Path&gt;" class="s0" d="m304 540.3c2.3 0 4.1-1.9 4.1-4.1 0-2.3-1.8-4.2-4.1-4.2-2.3 0-4.1 1.9-4.1 4.2 0 2.2 1.8 4.1 4.1 4.1z"/>
	<path id="&lt;Path&gt;" class="s0" d="m337.9 540.7c2.5 0 4.5-2 4.5-4.5 0-2.5-2-4.5-4.5-4.5-2.5 0-4.5 2-4.5 4.5 0 2.5 2 4.5 4.5 4.5z"/>
	<path id="&lt;Path&gt;" class="s0" d="m371.8 540.9c2.5 0 4.7-2.1 4.7-4.7 0-2.6-2.2-4.7-4.7-4.7-2.6 0-4.7 2.1-4.7 4.7 0 2.6 2.1 4.7 4.7 4.7z"/>
	<path id="&lt;Path&gt;" class="s0" d="m405.6 540.8c2.6 0 4.6-2.1 4.6-4.6 0-2.6-2-4.6-4.6-4.6-2.5 0-4.6 2-4.6 4.6 0 2.5 2.1 4.6 4.6 4.6z"/>
	<path id="&lt;Path&gt;" class="s0" d="m439.5 540.4c2.4 0 4.2-1.9 4.2-4.2 0-2.4-1.8-4.3-4.2-4.3-2.3 0-4.2 1.9-4.2 4.3 0 2.3 1.9 4.2 4.2 4.2z"/>
	<path id="&lt;Path&gt;" class="s0" d="m473.4 539.7c2 0 3.6-1.6 3.6-3.5 0-2-1.6-3.6-3.6-3.6-2 0-3.6 1.6-3.6 3.6 0 1.9 1.6 3.5 3.6 3.5z"/>
	<path id="&lt;Path&gt;" class="s0" d="m507.3 538.8c1.4 0 2.6-1.2 2.6-2.6 0-1.5-1.2-2.7-2.6-2.7-1.5 0-2.7 1.2-2.7 2.7 0 1.4 1.2 2.6 2.7 2.6z"/>
	<path id="&lt;Path&gt;" class="s0" d="m541.2 537.8c0.8 0 1.6-0.8 1.6-1.6 0-0.9-0.8-1.6-1.6-1.6-0.9 0-1.6 0.7-1.6 1.6 0 0.8 0.7 1.6 1.6 1.6z"/>
	<path id="&lt;Path&gt;" class="s0" d="m575 536.8c0.4 0 0.7-0.3 0.7-0.6 0-0.4-0.3-0.7-0.7-0.7-0.3 0-0.6 0.3-0.6 0.7 0 0.3 0.3 0.6 0.6 0.6z"/>
	<path id="&lt;Path&gt;" class="s0" d="m608.9 536.3q0.1-0.1 0.1-0.1 0-0.1-0.1-0.1-0.1 0-0.1 0.1 0 0 0.1 0.1z"/>
	<path id="&lt;Path&gt;" class="s0" d="m253.2 570.2c0.1 0 0.2-0.1 0.2-0.2 0-0.1-0.1-0.1-0.2-0.1-0.1 0-0.2 0-0.2 0.1 0 0.1 0.1 0.2 0.2 0.2z"/>
	<path id="&lt;Path&gt;" class="s0" d="m287.1 570.4c0.2 0 0.3-0.1 0.3-0.4 0-0.2-0.1-0.3-0.3-0.3-0.3 0-0.4 0.1-0.4 0.3 0 0.3 0.1 0.4 0.4 0.4z"/>
	<path id="&lt;Path&gt;" class="s0" d="m320.9 570.7c0.4 0 0.7-0.3 0.7-0.7 0-0.3-0.3-0.6-0.7-0.6-0.3 0-0.6 0.3-0.6 0.6 0 0.4 0.3 0.7 0.6 0.7z"/>
	<path id="&lt;Path&gt;" class="s0" d="m354.8 570.8c0.4 0 0.8-0.3 0.8-0.8 0-0.4-0.4-0.7-0.8-0.7-0.4 0-0.7 0.3-0.7 0.7 0 0.5 0.3 0.8 0.7 0.8z"/>
	<path id="&lt;Path&gt;" class="s0" d="m388.7 570.9c0.5 0 0.8-0.4 0.8-0.9 0-0.4-0.3-0.8-0.8-0.8-0.5 0-0.9 0.4-0.9 0.8 0 0.5 0.4 0.9 0.9 0.9z"/>
	<path id="&lt;Path&gt;" class="s0" d="m422.6 570.7c0.3 0 0.6-0.3 0.6-0.7 0-0.3-0.3-0.6-0.6-0.6-0.4 0-0.7 0.3-0.7 0.6 0 0.4 0.3 0.7 0.7 0.7z"/>
	<path id="&lt;Path&gt;" class="s0" d="m456.5 570.5c0.2 0 0.4-0.2 0.4-0.5 0-0.2-0.2-0.4-0.4-0.4-0.3 0-0.5 0.2-0.5 0.4 0 0.3 0.2 0.5 0.5 0.5z"/>
	<path id="&lt;Path&gt;" class="s0" d="m490.3 570.2c0.1 0 0.2-0.1 0.2-0.2 0-0.1-0.1-0.1-0.2-0.1-0.1 0-0.1 0-0.1 0.1 0 0.1 0 0.2 0.1 0.2z"/>
	<path id="&lt;Path&gt;" class="s0" d="m257.7 55q0 0 0.1-0.1-0.1-0.1-0.1-0.1-0.1 0-0.1 0.1 0 0.1 0.1 0.1z"/>
	<path id="&lt;Path&gt;" class="s0" d="m291.5 55.1c0.1 0 0.2-0.1 0.2-0.2 0-0.1-0.1-0.2-0.2-0.2-0.1 0-0.1 0.1-0.1 0.2 0 0.1 0 0.2 0.1 0.2z"/>
	<path id="&lt;Path&gt;" class="s0" d="m325.4 55.3c0.2 0 0.4-0.2 0.4-0.4 0-0.2-0.2-0.4-0.4-0.4-0.2 0-0.4 0.2-0.4 0.4 0 0.2 0.2 0.4 0.4 0.4z"/>
	<path id="&lt;Path&gt;" class="s0" d="m359.3 55.3c0.2 0 0.4-0.2 0.4-0.4 0-0.2-0.2-0.4-0.4-0.4-0.2 0-0.4 0.2-0.4 0.4 0 0.2 0.2 0.4 0.4 0.4z"/>
	<path id="&lt;Path&gt;" class="s0" d="m393.2 55.3c0.2 0 0.4-0.2 0.4-0.4 0-0.2-0.2-0.4-0.4-0.4-0.2 0-0.4 0.2-0.4 0.4 0 0.2 0.2 0.4 0.4 0.4z"/>
	<path id="&lt;Path&gt;" class="s0" d="m427.1 55.1c0.1 0 0.2-0.1 0.2-0.2 0-0.1-0.1-0.2-0.2-0.2-0.1 0-0.2 0.1-0.2 0.2 0 0.1 0.1 0.2 0.2 0.2z"/>
	<path id="&lt;Path&gt;" class="s0" d="m460.9 55q0.1 0 0.1-0.1 0-0.1-0.1-0.1 0 0 0 0.1 0 0.1 0 0.1z"/>
	<path id="&lt;Compound Path&gt;" fill-rule="evenodd" class="s0" d="m446.1 456.6c-28.6 0-55.3-12.8-73.1-34.2-9.6 4.1-20 6.3-30.7 6.3-14.6 0-28.7-4.1-40.8-11.5-18.6 14.9-41.7 23.2-66.1 23.2-58.3 0-105.6-47.4-105.6-105.6q0-12.5 2.7-24.3c-20.5-14.7-33.3-38.6-33.3-64.9 0-32.3 19.3-60.6 47.6-73 0-52.6 42.8-95.4 95.4-95.4 11.3 0 22.4 2 32.9 5.9 17.7-37.3 55.5-62.1 98.9-62.1 37.4 0 71.7 19.1 91.7 49.3 33.9-12.1 72.5-4.1 99.2 22.6 11.7 11.7 20.1 26.2 24.5 41.9 21.7-0.8 43.6 7.3 59.5 23.3 15.1 15 23.4 35 23.4 56.3 0 21.3-8.3 41.3-23.4 56.4-3.4 3.4-7.1 6.5-11.1 9.3q1.3 7.8 1.3 15.9c0 52.5-42.7 95.3-95.3 95.3q-3.5 0-7-0.3c-12.4 38.4-48.2 65.6-90.7 65.6zm-58.1-106l13.4 30.4c7.8 17.7 25.3 29.2 44.7 29.2 26.7 0 48.1-20.9 48.9-47.5l0.9-32.7 30.5 11.7c5.6 2.1 11.4 3.2 17.4 3.2 26.9 0 48.9-22 48.9-48.9 0-6.6-1.3-12.9-3.8-18.9l-9.8-23.2 23.9-7.9c5-1.6 9.4-4.3 13.1-8.1 6.3-6.2 9.7-14.6 9.7-23.5 0-8.9-3.4-17.2-9.7-23.5-9.7-9.7-24.6-12.4-37.1-6.9l-33.9 15.1 1.3-37.1c0.4-13.7-4.6-26.6-14.3-36.3-17-17-43.5-19.2-63-5.2l-25.1 17.9-10.3-29c-9-25.1-33-42-59.7-42-30.9 0-57.7 23-62.5 53.5l-6.3 40.7-31.6-26.5c-8.7-7.4-19.9-11.4-31.4-11.4-27 0-48.9 21.9-48.9 48.9 0 3.9 0.4 7.8 1.3 11.5l6.2 25.3-26 3.2c-16.6 2-29.2 16.2-29.2 33 0 14.4 9.2 27.1 22.8 31.6l25 8.3-11.4 23.8c-3.9 7.9-5.8 16.5-5.8 25.5 0 32.6 26.6 59.1 59.2 59.1 18.2 0 35.2-8.2 46.5-22.6l17.8-22.5 18.3 22.1c6 7.2 14.9 11.4 24.3 11.4 8.1 0 15.9-3.1 21.8-8.8z"/>
	<path id="&lt;Path&gt;" class="s1" d="m645.9 241c-6.5 6.5-14.1 11-22.2 13.7 3.6 8.6 5.6 18 5.6 27.9 0 39.8-32.3 72.1-72.1 72.1-9 0-17.7-1.7-25.7-4.7-1 38.9-32.9 70-72 70-29.5 0-54.9-17.7-66-43.1-9.8 9.4-23.2 15.2-37.8 15.2-17 0-32.1-7.7-42.2-19.8-15.1 19.2-38.5 31.5-64.7 31.5-45.5 0-82.4-36.9-82.4-82.4 0-12.8 2.9-24.8 8-35.6-22.5-7.4-38.6-28.6-38.6-53.6 0-28.9 21.6-52.7 49.6-56.1-1.3-5.4-2-11.1-2-16.9 0-39.8 32.3-72.1 72.2-72.1 17.6 0 33.8 6.3 46.4 16.8 6.4-41.4 42.2-73.1 85.4-73.1 37.6 0 69.5 24 81.5 57.4 28.2-20.2 67.7-17.6 93 7.7 14.7 14.7 21.7 34.2 21.1 53.5 20.7-9.2 45.9-5.3 62.9 11.7 22.1 22.1 22.1 57.8 0 79.9z"/>
</svg>