<svg version="1.2" xmlns="http://www.w3.org/2000/svg" viewBox="0 0 770 551" width="770" height="551">
	<title>New Project</title>
	<style>
		.s0 { fill: #ffb6c1 } 
		.s1 { fill: #ffffff } 
	</style>
	<path id="&lt;Path&gt;" class="s0" d="m273.8 85.7c0.1 0 0.2-0.1 0.2-0.3 0-0.1-0.1-0.2-0.2-0.2-0.2 0-0.3 0.1-0.3 0.2 0 0.2 0.1 0.3 0.3 0.3z"/>
	<path id="&lt;Path&gt;" class="s0" d="m307.6 86c0.4 0 0.6-0.3 0.6-0.6 0-0.3-0.2-0.5-0.6-0.5-0.3 0-0.5 0.2-0.5 0.5 0 0.3 0.2 0.6 0.5 0.6z"/>
	<path id="&lt;Path&gt;" class="s0" d="m341.5 86.3c0.5 0 0.9-0.4 0.9-0.9 0-0.4-0.4-0.8-0.9-0.8-0.4 0-0.8 0.4-0.8 0.8 0 0.5 0.4 0.9 0.8 0.9z"/>
	<path id="&lt;Path&gt;" class="s0" d="m375.4 86.5c0.6 0 1-0.5 1-1.1 0-0.5-0.4-1-1-1-0.6 0-1 0.5-1 1 0 0.6 0.4 1.1 1 1.1z"/>
	<path id="&lt;Path&gt;" class="s0" d="m409.3 86.5c0.6 0 1-0.5 1-1.1 0-0.5-0.4-1-1-1-0.6 0-1 0.5-1 1 0 0.6 0.4 1.1 1 1.1z"/>
	<path id="&lt;Path&gt;" class="s0" d="m443.2 86.3c0.4 0 0.8-0.4 0.8-0.9 0-0.4-0.4-0.8-0.8-0.8-0.5 0-0.9 0.4-0.9 0.8 0 0.5 0.4 0.9 0.9 0.9z"/>
	<path id="&lt;Path&gt;" class="s0" d="m477.1 86c0.3 0 0.5-0.3 0.5-0.6 0-0.3-0.2-0.5-0.5-0.5-0.4 0-0.6 0.2-0.6 0.5 0 0.3 0.2 0.6 0.6 0.6z"/>
	<path id="&lt;Path&gt;" class="s0" d="m510.9 85.7c0.2 0 0.3-0.1 0.3-0.3 0-0.1-0.1-0.2-0.3-0.2-0.1 0-0.2 0.1-0.2 0.2 0 0.2 0.1 0.3 0.2 0.3z"/>
	<path id="&lt;Path&gt;" class="s0" d="m544.8 85.5q0.1 0 0.1-0.1 0 0-0.1-0.1-0.1 0.1-0.1 0.1 0 0.1 0.1 0.1z"/>
	<path id="&lt;Path&gt;" class="s0" d="m155.2 119.4q0.1 0 0.1-0.1 0-0.1-0.1-0.1-0.1 0-0.1 0.1 0 0.1 0.1 0.1z"/>
	<path id="&lt;Path&gt;" class="s0" d="m189.1 120.1c0.4 0 0.7-0.4 0.7-0.8 0-0.4-0.3-0.7-0.7-0.7-0.5 0-0.8 0.3-0.8 0.7 0 0.4 0.3 0.8 0.8 0.8z"/>
	<path id="&lt;Path&gt;" class="s0" d="m222.9 121.1c1 0 1.8-0.8 1.8-1.8 0-1-0.8-1.8-1.8-1.8-0.9 0-1.7 0.8-1.7 1.8 0 1 0.8 1.8 1.7 1.8z"/>
	<path id="&lt;Path&gt;" class="s0" d="m256.8 122.1c1.6 0 2.8-1.2 2.8-2.8 0-1.5-1.2-2.8-2.8-2.8-1.5 0-2.8 1.3-2.8 2.8 0 1.6 1.3 2.8 2.8 2.8z"/>
	<path id="&lt;Path&gt;" class="s0" d="m290.7 123.1c2.1 0 3.8-1.7 3.8-3.8 0-2.1-1.7-3.7-3.8-3.7-2.1 0-3.8 1.6-3.8 3.7 0 2.1 1.7 3.8 3.8 3.8z"/>
	<path id="&lt;Path&gt;" class="s0" d="m324.6 123.7c2.4 0 4.4-1.9 4.4-4.4 0-2.4-2-4.4-4.4-4.4-2.5 0-4.4 2-4.4 4.4 0 2.5 1.9 4.4 4.4 4.4z"/>
	<path id="&lt;Path&gt;" class="s0" d="m358.5 124.1c2.6 0 4.8-2.1 4.8-4.8 0-2.6-2.2-4.8-4.8-4.8-2.7 0-4.8 2.2-4.8 4.8 0 2.7 2.1 4.8 4.8 4.8z"/>
	<path id="&lt;Path&gt;" class="s0" d="m392.3 124.3c2.8 0 5-2.2 5-5 0-2.7-2.2-5-5-5-2.7 0-4.9 2.3-4.9 5 0 2.8 2.2 5 4.9 5z"/>
	<path id="&lt;Path&gt;" class="s0" d="m426.2 124.2c2.7 0 4.9-2.2 4.9-4.9 0-2.7-2.2-4.9-4.9-4.9-2.7 0-4.9 2.2-4.9 4.9 0 2.7 2.2 4.9 4.9 4.9z"/>
	<path id="&lt;Path&gt;" class="s0" d="m460.1 123.7c2.5 0 4.4-1.9 4.4-4.4 0-2.4-1.9-4.4-4.4-4.4-2.4 0-4.4 2-4.4 4.4 0 2.5 2 4.4 4.4 4.4z"/>
	<path id="&lt;Path&gt;" class="s0" d="m494 123.2c2.1 0 3.8-1.8 3.8-3.9 0-2.1-1.7-3.8-3.8-3.8-2.1 0-3.9 1.7-3.9 3.8 0 2.1 1.8 3.9 3.9 3.9z"/>
	<path id="&lt;Path&gt;" class="s0" d="m527.9 122.2c1.6 0 2.9-1.3 2.9-2.9 0-1.6-1.3-2.9-2.9-2.9-1.6 0-2.9 1.3-2.9 2.9 0 1.6 1.3 2.9 2.9 2.9z"/>
	<path id="&lt;Path&gt;" class="s0" d="m561.8 121.2c1 0 1.8-0.8 1.8-1.9 0-1-0.8-1.9-1.8-1.9-1.1 0-1.9 0.9-1.9 1.9 0 1.1 0.8 1.9 1.9 1.9z"/>
	<path id="&lt;Path&gt;" class="s0" d="m595.6 120.2c0.5 0 0.9-0.4 0.9-0.9 0-0.4-0.4-0.8-0.9-0.8-0.4 0-0.8 0.4-0.8 0.8 0 0.5 0.4 0.9 0.8 0.9z"/>
	<path id="&lt;Path&gt;" class="s0" d="m629.5 119.4q0.1 0 0.1-0.1 0-0.1-0.1-0.1-0.1 0-0.1 0.1 0 0.1 0.1 0.1z"/>
	<path id="&lt;Path&gt;" class="s0" d="m104.4 153.4c0.1 0 0.1-0.1 0.1-0.2 0-0.1 0-0.2-0.1-0.2-0.1 0-0.2 0.1-0.2 0.2 0 0.1 0.1 0.2 0.2 0.2z"/>
	<path id="&lt;Path&gt;" class="s0" d="m138.2 154.6c0.8 0 1.4-0.6 1.4-1.4 0-0.8-0.6-1.4-1.4-1.4-0.7 0-1.4 0.6-1.4 1.4 0 0.8 0.7 1.4 1.4 1.4z"/>
	<path id="&lt;Path&gt;" class="s0" d="m172.1 156.3c1.7 0 3.1-1.4 3.1-3.1 0-1.7-1.4-3.1-3.1-3.1-1.7 0-3.1 1.4-3.1 3.1 0 1.7 1.4 3.1 3.1 3.1z"/>
	<path id="&lt;Path&gt;" class="s0" d="m206 157.8c2.5 0 4.6-2.1 4.6-4.6 0-2.5-2.1-4.6-4.6-4.6-2.5 0-4.6 2.1-4.6 4.6 0 2.5 2.1 4.6 4.6 4.6z"/>
	<path id="&lt;Path&gt;" class="s0" d="m239.9 159.1c3.3 0 5.9-2.6 5.9-5.9 0-3.3-2.6-5.9-5.9-5.9-3.3 0-5.9 2.6-5.9 5.9 0 3.3 2.6 5.9 5.9 5.9z"/>
	<path id="&lt;Path&gt;" class="s0" d="m273.8 160.3c3.9 0 7.1-3.2 7.1-7.1 0-3.9-3.2-7.1-7.1-7.1-4 0-7.2 3.2-7.2 7.1 0 3.9 3.2 7.1 7.2 7.1z"/>
	<path id="&lt;Path&gt;" class="s0" d="m307.6 161.2c4.5 0 8-3.6 8-8 0-4.4-3.5-8-8-8-4.4 0-7.9 3.6-7.9 8 0 4.4 3.5 8 7.9 8z"/>
	<path id="&lt;Path&gt;" class="s0" d="m341.5 161.8c4.8 0 8.7-3.8 8.7-8.6 0-4.8-3.9-8.6-8.7-8.6-4.7 0-8.6 3.8-8.6 8.6 0 4.8 3.9 8.6 8.6 8.6z"/>
	<path id="&lt;Path&gt;" class="s0" d="m375.4 162.1c4.9 0 8.9-4 8.9-8.9 0-4.9-4-8.9-8.9-8.9-4.9 0-8.9 4-8.9 8.9 0 4.9 4 8.9 8.9 8.9z"/>
	<path id="&lt;Path&gt;" class="s0" d="m443.2 161.8c4.7 0 8.6-3.8 8.6-8.6 0-4.8-3.9-8.6-8.6-8.6-4.8 0-8.7 3.8-8.7 8.6 0 4.8 3.9 8.6 8.7 8.6z"/>
	<path id="&lt;Path&gt;" class="s0" d="m477.1 161.3c4.4 0 8-3.6 8-8.1 0-4.5-3.6-8.1-8-8.1-4.5 0-8.1 3.6-8.1 8.1 0 4.5 3.6 8.1 8.1 8.1z"/>
	<path id="&lt;Path&gt;" class="s0" d="m510.9 160.4c4 0 7.3-3.2 7.3-7.2 0-4-3.3-7.2-7.3-7.2-4 0-7.2 3.2-7.2 7.2 0 4 3.2 7.2 7.2 7.2z"/>
	<path id="&lt;Path&gt;" class="s0" d="m544.8 159.3c3.4 0 6.1-2.7 6.1-6.1 0-3.4-2.7-6.1-6.1-6.1-3.4 0-6.1 2.7-6.1 6.1 0 3.4 2.7 6.1 6.1 6.1z"/>
	<path id="&lt;Path&gt;" class="s0" d="m578.7 158c2.6 0 4.8-2.2 4.8-4.8 0-2.6-2.2-4.8-4.8-4.8-2.6 0-4.8 2.2-4.8 4.8 0 2.6 2.2 4.8 4.8 4.8z"/>
	<path id="&lt;Path&gt;" class="s0" d="m612.6 156.4c1.7 0 3.2-1.4 3.2-3.2 0-1.8-1.5-3.2-3.2-3.2-1.8 0-3.2 1.4-3.2 3.2 0 1.8 1.4 3.2 3.2 3.2z"/>
	<path id="&lt;Path&gt;" class="s0" d="m646.5 154.7c0.8 0 1.5-0.7 1.5-1.5 0-0.8-0.7-1.5-1.5-1.5-0.9 0-1.5 0.7-1.5 1.5 0 0.8 0.6 1.5 1.5 1.5z"/>
	<path id="&lt;Path&gt;" class="s0" d="m680.3 153.5c0.2 0 0.3-0.1 0.3-0.3 0-0.2-0.1-0.3-0.3-0.3-0.1 0-0.2 0.1-0.2 0.3 0 0.2 0.1 0.3 0.2 0.3z"/>
	<path id="&lt;Path&gt;" class="s0" d="m53.5 187.2q0.1 0 0.1-0.1 0-0.1-0.1-0.1-0.1 0-0.1 0.1 0 0.1 0.1 0.1z"/>
	<path id="&lt;Path&gt;" class="s0" d="m87.4 188.3c0.7 0 1.2-0.5 1.2-1.2 0-0.7-0.5-1.2-1.2-1.2-0.7 0-1.2 0.5-1.2 1.2 0 0.7 0.5 1.2 1.2 1.2z"/>
	<path id="&lt;Path&gt;" class="s0" d="m121.3 190.3c1.8 0 3.2-1.5 3.2-3.2 0-1.8-1.4-3.2-3.2-3.2-1.8 0-3.2 1.4-3.2 3.2 0 1.7 1.4 3.2 3.2 3.2z"/>
	<path id="&lt;Path&gt;" class="s0" d="m155.2 192.2c2.8 0 5.1-2.3 5.1-5.1 0-2.9-2.3-5.2-5.1-5.2-2.9 0-5.2 2.3-5.2 5.2 0 2.8 2.3 5.1 5.2 5.1z"/>
	<path id="&lt;Path&gt;" class="s0" d="m189.1 194c3.8 0 6.9-3.1 6.9-6.9 0-3.9-3.1-7-6.9-7-3.9 0-7 3.1-7 7 0 3.8 3.1 6.9 7 6.9z"/>
	<path id="&lt;Path&gt;" class="s0" d="m222.9 195.7c4.8 0 8.7-3.8 8.7-8.6 0-4.8-3.9-8.7-8.7-8.7-4.7 0-8.6 3.9-8.6 8.7 0 4.8 3.9 8.6 8.6 8.6z"/>
	<path id="&lt;Path&gt;" class="s0" d="m256.8 197.2c5.6 0 10.2-4.5 10.2-10.1 0-5.6-4.6-10.2-10.2-10.2-5.6 0-10.1 4.6-10.1 10.2 0 5.6 4.5 10.1 10.1 10.1z"/>
	<path id="&lt;Path&gt;" class="s0" d="m290.7 198.4c6.3 0 11.4-5 11.4-11.3 0-6.3-5.1-11.4-11.4-11.4-6.3 0-11.4 5.1-11.4 11.4 0 6.3 5.1 11.3 11.4 11.3z"/>
	<path id="&lt;Path&gt;" class="s0" d="m324.6 199.4c6.8 0 12.3-5.5 12.3-12.3 0-6.8-5.5-12.3-12.3-12.3-6.8 0-12.3 5.5-12.3 12.3 0 6.8 5.5 12.3 12.3 12.3z"/>
	<path id="&lt;Path&gt;" class="s0" d="m358.5 200c7.1 0 12.8-5.8 12.8-12.9 0-7.1-5.7-12.9-12.8-12.9-7.1 0-12.9 5.8-12.9 12.9 0 7.1 5.8 12.9 12.9 12.9z"/>
	<path id="&lt;Path&gt;" class="s0" d="m392.3 200.2c7.3 0 13.2-5.9 13.2-13.1 0-7.3-5.9-13.2-13.2-13.2-7.2 0-13.1 5.9-13.1 13.2 0 7.2 5.9 13.1 13.1 13.1z"/>
	<path id="&lt;Path&gt;" class="s0" d="m426.2 200c7.2 0 13-5.8 13-12.9 0-7.2-5.8-13-13-13-7.1 0-12.9 5.8-12.9 13 0 7.1 5.8 12.9 12.9 12.9z"/>
	<path id="&lt;Path&gt;" class="s0" d="m460.1 199.4c6.8 0 12.3-5.5 12.3-12.3 0-6.8-5.5-12.3-12.3-12.3-6.8 0-12.3 5.5-12.3 12.3 0 6.8 5.5 12.3 12.3 12.3z"/>
	<path id="&lt;Path&gt;" class="s0" d="m494 198.5c6.3 0 11.5-5.1 11.5-11.4 0-6.3-5.2-11.5-11.5-11.5-6.3 0-11.5 5.2-11.5 11.5 0 6.3 5.2 11.4 11.5 11.4z"/>
	<path id="&lt;Path&gt;" class="s0" d="m527.9 197.3c5.6 0 10.2-4.6 10.2-10.2 0-5.7-4.6-10.3-10.2-10.3-5.7 0-10.3 4.6-10.3 10.3 0 5.6 4.6 10.2 10.3 10.2z"/>
	<path id="&lt;Path&gt;" class="s0" d="m561.8 195.8c4.8 0 8.7-3.9 8.7-8.7 0-4.8-3.9-8.8-8.7-8.8-4.9 0-8.8 4-8.8 8.8 0 4.8 3.9 8.7 8.8 8.7z"/>
	<path id="&lt;Path&gt;" class="s0" d="m595.6 194.2c4 0 7.2-3.2 7.2-7.1 0-4-3.2-7.2-7.2-7.2-3.9 0-7.1 3.2-7.1 7.2 0 3.9 3.2 7.1 7.1 7.1z"/>
	<path id="&lt;Path&gt;" class="s0" d="m629.5 192.4c3 0 5.4-2.4 5.4-5.3 0-3-2.4-5.4-5.4-5.4-2.9 0-5.3 2.4-5.3 5.4 0 2.9 2.4 5.3 5.3 5.3z"/>
	<path id="&lt;Path&gt;" class="s0" d="m663.4 190.5c1.9 0 3.4-1.6 3.4-3.4 0-1.9-1.5-3.4-3.4-3.4-1.9 0-3.4 1.5-3.4 3.4 0 1.8 1.5 3.4 3.4 3.4z"/>
	<path id="&lt;Path&gt;" class="s0" d="m697.3 188.5c0.8 0 1.4-0.6 1.4-1.4 0-0.8-0.6-1.4-1.4-1.4-0.8 0-1.4 0.6-1.4 1.4 0 0.8 0.6 1.4 1.4 1.4z"/>
	<path id="&lt;Path&gt;" class="s0" d="m731.2 187.2q0.1 0 0.1-0.1 0-0.1-0.1-0.1-0.1 0-0.1 0.1 0 0.1 0.1 0.1z"/>
	<path id="&lt;Path&gt;" class="s0" d="m36.6 221.2c0.1 0 0.3-0.1 0.3-0.2 0-0.2-0.2-0.3-0.3-0.3-0.2 0-0.3 0.1-0.3 0.3 0 0.1 0.1 0.2 0.3 0.2z"/>
	<path id="&lt;Path&gt;" class="s0" d="m70.5 223.1c1.2 0 2.1-0.9 2.1-2.1 0-1.2-0.9-2.2-2.1-2.2-1.2 0-2.2 1-2.2 2.2 0 1.2 1 2.1 2.2 2.1z"/>
	<path id="&lt;Path&gt;" class="s0" d="m104.4 225.4c2.4 0 4.4-2 4.4-4.4 0-2.5-2-4.5-4.4-4.5-2.5 0-4.5 2-4.5 4.5 0 2.4 2 4.4 4.5 4.4z"/>
	<path id="&lt;Path&gt;" class="s0" d="m138.2 227.6c3.7 0 6.7-3 6.7-6.6 0-3.7-3-6.7-6.7-6.7-3.6 0-6.6 3-6.6 6.7 0 3.6 3 6.6 6.6 6.6z"/>
	<path id="&lt;Path&gt;" class="s0" d="m172.1 229.7c4.8 0 8.8-3.9 8.8-8.7 0-4.9-4-8.8-8.8-8.8-4.8 0-8.7 3.9-8.7 8.8 0 4.8 3.9 8.7 8.7 8.7z"/>
	<path id="&lt;Path&gt;" class="s0" d="m206 231.7c5.9 0 10.7-4.8 10.7-10.7 0-6-4.8-10.7-10.7-10.7-5.9 0-10.7 4.7-10.7 10.7 0 5.9 4.8 10.7 10.7 10.7z"/>
	<path id="&lt;Path&gt;" class="s0" d="m239.9 233.6c6.9 0 12.6-5.7 12.6-12.6 0-7-5.7-12.6-12.6-12.6-7 0-12.6 5.6-12.6 12.6 0 6.9 5.6 12.6 12.6 12.6z"/>
	<path id="&lt;Path&gt;" class="s0" d="m273.8 235.1c7.8 0 14.2-6.3 14.2-14.1 0-7.9-6.4-14.2-14.2-14.2-7.9 0-14.2 6.3-14.2 14.2 0 7.8 6.3 14.1 14.2 14.1z"/>
	<path id="&lt;Path&gt;" class="s0" d="m307.6 236.6c8.7 0 15.6-7 15.6-15.6 0-8.7-6.9-15.6-15.6-15.6-8.6 0-15.6 6.9-15.6 15.6 0 8.6 7 15.6 15.6 15.6z"/>
	<path id="&lt;Path&gt;" class="s0" d="m341.5 237.6c9.2 0 16.7-7.5 16.7-16.6 0-9.2-7.5-16.7-16.7-16.7-9.2 0-16.6 7.5-16.6 16.7 0 9.1 7.4 16.6 16.6 16.6z"/>
	<path id="&lt;Path&gt;" class="s0" d="m375.4 238.2c9.5 0 17.2-7.7 17.2-17.2 0-9.5-7.7-17.2-17.2-17.2-9.5 0-17.2 7.7-17.2 17.2 0 9.5 7.7 17.2 17.2 17.2z"/>
	<path id="&lt;Path&gt;" class="s0" d="m409.3 238.2c9.5 0 17.2-7.7 17.2-17.2 0-9.5-7.7-17.2-17.2-17.2-9.5 0-17.2 7.7-17.2 17.2 0 9.5 7.7 17.2 17.2 17.2z"/>
	<path id="&lt;Path&gt;" class="s0" d="m443.2 237.6c9.2 0 16.6-7.5 16.6-16.6 0-9.2-7.4-16.7-16.6-16.7-9.2 0-16.7 7.5-16.7 16.7 0 9.1 7.5 16.6 16.7 16.6z"/>
	<path id="&lt;Path&gt;" class="s0" d="m477.1 236.7c8.6 0 15.6-7.1 15.6-15.7 0-8.7-7-15.7-15.6-15.7-8.7 0-15.7 7-15.7 15.7 0 8.6 7 15.7 15.7 15.7z"/>
	<path id="&lt;Path&gt;" class="s0" d="m510.9 235.3c8 0 14.4-6.4 14.4-14.3 0-8-6.4-14.4-14.4-14.4-7.9 0-14.3 6.4-14.3 14.4 0 7.9 6.4 14.3 14.3 14.3z"/>
	<path id="&lt;Path&gt;" class="s0" d="m544.8 233.7c7.1 0 12.8-5.7 12.8-12.7 0-7.1-5.7-12.8-12.8-12.8-7 0-12.8 5.7-12.8 12.8 0 7 5.8 12.7 12.8 12.7z"/>
	<path id="&lt;Path&gt;" class="s0" d="m578.7 231.9c6 0 10.9-4.9 10.9-10.9 0-6.1-4.9-10.9-10.9-10.9-6 0-10.9 4.8-10.9 10.9 0 6 4.9 10.9 10.9 10.9z"/>
	<path id="&lt;Path&gt;" class="s0" d="m612.6 229.9c4.9 0 8.9-4 8.9-8.9 0-5-4-9-8.9-9-5 0-8.9 4-8.9 9 0 4.9 3.9 8.9 8.9 8.9z"/>
	<path id="&lt;Path&gt;" class="s0" d="m646.5 227.8c3.7 0 6.8-3 6.8-6.8 0-3.8-3.1-6.9-6.8-6.9-3.8 0-6.9 3.1-6.9 6.9 0 3.8 3.1 6.8 6.9 6.8z"/>
	<path id="&lt;Path&gt;" class="s0" d="m680.3 225.7c2.6 0 4.7-2.1 4.7-4.7 0-2.6-2.1-4.7-4.7-4.7-2.6 0-4.7 2.1-4.7 4.7 0 2.6 2.1 4.7 4.7 4.7z"/>
	<path id="&lt;Path&gt;" class="s0" d="m714.2 223.3c1.3 0 2.4-1 2.4-2.3 0-1.3-1.1-2.4-2.4-2.4-1.3 0-2.3 1.1-2.3 2.4 0 1.3 1 2.3 2.3 2.3z"/>
	<path id="&lt;Path&gt;" class="s0" d="m748.1 221.3c0.2 0 0.4-0.1 0.4-0.3 0-0.2-0.2-0.4-0.4-0.4-0.2 0-0.4 0.2-0.4 0.4 0 0.2 0.2 0.3 0.4 0.3z"/>
	<path id="&lt;Path&gt;" class="s0" d="m19.7 255.2c0.2 0 0.3-0.1 0.3-0.4 0-0.2-0.1-0.3-0.3-0.3-0.3 0-0.4 0.1-0.4 0.3 0 0.3 0.1 0.4 0.4 0.4z"/>
	<path id="&lt;Path&gt;" class="s0" d="m53.5 257.4c1.4 0 2.6-1.2 2.6-2.6 0-1.4-1.2-2.5-2.6-2.5-1.4 0-2.5 1.1-2.5 2.5 0 1.4 1.1 2.6 2.5 2.6z"/>
	<path id="&lt;Path&gt;" class="s0" d="m87.4 259.8c2.8 0 5-2.2 5-5 0-2.7-2.2-4.9-5-4.9-2.7 0-5 2.2-5 4.9 0 2.8 2.3 5 5 5z"/>
	<path id="&lt;Path&gt;" class="s0" d="m121.3 262.2c4 0 7.3-3.3 7.3-7.4 0-4-3.3-7.3-7.3-7.3-4.1 0-7.3 3.3-7.3 7.3 0 4.1 3.2 7.4 7.3 7.4z"/>
	<path id="&lt;Path&gt;" class="s0" d="m155.2 264.5c5.3 0 9.7-4.3 9.7-9.7 0-5.3-4.4-9.6-9.7-9.6-5.4 0-9.7 4.3-9.7 9.6 0 5.4 4.3 9.7 9.7 9.7z"/>
	<path id="&lt;Path&gt;" class="s0" d="m189.1 266.9c6.6 0 12-5.4 12-12.1 0-6.6-5.4-12-12-12-6.7 0-12.1 5.4-12.1 12 0 6.7 5.4 12.1 12.1 12.1z"/>
	<path id="&lt;Path&gt;" class="s0" d="m222.9 269c7.9 0 14.2-6.3 14.2-14.2 0-7.8-6.3-14.1-14.2-14.1-7.8 0-14.1 6.3-14.1 14.1 0 7.9 6.3 14.2 14.1 14.2z"/>
	<path id="&lt;Path&gt;" class="s0" d="m256.8 271.2c9.1 0 16.4-7.3 16.4-16.4 0-9-7.3-16.3-16.4-16.3-9 0-16.3 7.3-16.3 16.3 0 9.1 7.3 16.4 16.3 16.4z"/>
	<path id="&lt;Path&gt;" class="s0" d="m290.7 273.1c10.1 0 18.2-8.2 18.2-18.3 0-10-8.1-18.2-18.2-18.2-10.1 0-18.2 8.2-18.2 18.2 0 10.1 8.1 18.3 18.2 18.3z"/>
	<path id="&lt;Path&gt;" class="s0" d="m324.6 274.4c10.8 0 19.5-8.8 19.5-19.6 0-10.7-8.7-19.5-19.5-19.5-10.8 0-19.6 8.8-19.6 19.5 0 10.8 8.8 19.6 19.6 19.6z"/>
	<path id="&lt;Path&gt;" class="s0" d="m358.5 275c11.1 0 20.2-9 20.2-20.2 0-11.1-9.1-20.2-20.2-20.2-11.2 0-20.2 9.1-20.2 20.2 0 11.2 9 20.2 20.2 20.2z"/>
	<path id="&lt;Path&gt;" class="s0" d="m392.3 275.2c11.3 0 20.4-9.1 20.4-20.4 0-11.2-9.1-20.3-20.4-20.3-11.2 0-20.3 9.1-20.3 20.3 0 11.3 9.1 20.4 20.3 20.4z"/>
	<path id="&lt;Path&gt;" class="s0" d="m426.2 275c11.2 0 20.2-9 20.2-20.2 0-11.1-9-20.2-20.2-20.2-11.1 0-20.2 9.1-20.2 20.2 0 11.2 9.1 20.2 20.2 20.2z"/>
	<path id="&lt;Path&gt;" class="s0" d="m460.1 274.5c10.9 0 19.6-8.8 19.6-19.7 0-10.8-8.7-19.6-19.6-19.6-10.8 0-19.6 8.8-19.6 19.6 0 10.9 8.8 19.7 19.6 19.7z"/>
	<path id="&lt;Path&gt;" class="s0" d="m494 273.2c10.1 0 18.3-8.2 18.3-18.4 0-10.1-8.2-18.3-18.3-18.3-10.1 0-18.3 8.2-18.3 18.3 0 10.2 8.2 18.4 18.3 18.4z"/>
	<path id="&lt;Path&gt;" class="s0" d="m527.9 271.4c9.1 0 16.5-7.4 16.5-16.6 0-9.1-7.4-16.5-16.5-16.5-9.2 0-16.6 7.4-16.6 16.5 0 9.2 7.4 16.6 16.6 16.6z"/>
	<path id="&lt;Path&gt;" class="s0" d="m561.8 269.3c7.9 0 14.4-6.5 14.4-14.5 0-7.9-6.5-14.4-14.4-14.4-8 0-14.5 6.5-14.5 14.4 0 8 6.5 14.5 14.5 14.5z"/>
	<path id="&lt;Path&gt;" class="s0" d="m595.6 267.1c6.8 0 12.3-5.5 12.3-12.3 0-6.7-5.5-12.2-12.3-12.2-6.7 0-12.2 5.5-12.2 12.2 0 6.8 5.5 12.3 12.2 12.3z"/>
	<path id="&lt;Path&gt;" class="s0" d="m629.5 264.8c5.5 0 10-4.5 10-10 0-5.5-4.5-9.9-10-9.9-5.5 0-9.9 4.4-9.9 9.9 0 5.5 4.4 10 9.9 10z"/>
	<path id="&lt;Path&gt;" class="s0" d="m663.4 262.5c4.2 0 7.6-3.5 7.6-7.7 0-4.2-3.4-7.6-7.6-7.6-4.2 0-7.6 3.4-7.6 7.6 0 4.2 3.4 7.7 7.6 7.7z"/>
	<path id="&lt;Path&gt;" class="s0" d="m697.3 260c2.8 0 5.2-2.3 5.2-5.2 0-2.8-2.4-5.1-5.2-5.1-2.9 0-5.2 2.3-5.2 5.1 0 2.9 2.3 5.2 5.2 5.2z"/>
	<path id="&lt;Path&gt;" class="s0" d="m731.2 257.7c1.5 0 2.8-1.3 2.8-2.9 0-1.5-1.3-2.8-2.8-2.8-1.6 0-2.9 1.3-2.9 2.8 0 1.6 1.3 2.9 2.9 2.9z"/>
	<path id="&lt;Path&gt;" class="s0" d="m36.6 291c1.2 0 2.2-1 2.2-2.3 0-1.2-1-2.2-2.2-2.2-1.3 0-2.3 1-2.3 2.2 0 1.3 1 2.3 2.3 2.3z"/>
	<path id="&lt;Path&gt;" class="s0" d="m70.5 293.5c2.6 0 4.8-2.1 4.8-4.8 0-2.6-2.2-4.8-4.8-4.8-2.7 0-4.8 2.2-4.8 4.8 0 2.7 2.1 4.8 4.8 4.8z"/>
	<path id="&lt;Path&gt;" class="s0" d="m104.4 296.1c4 0 7.3-3.3 7.3-7.4 0-4-3.3-7.3-7.3-7.3-4.1 0-7.4 3.3-7.4 7.3 0 4.1 3.3 7.4 7.4 7.4z"/>
	<path id="&lt;Path&gt;" class="s0" d="m138.2 298.5c5.4 0 9.8-4.4 9.8-9.8 0-5.4-4.4-9.7-9.8-9.7-5.4 0-9.7 4.3-9.7 9.7 0 5.4 4.3 9.8 9.7 9.8z"/>
	<path id="&lt;Path&gt;" class="s0" d="m172.1 301c6.8 0 12.3-5.5 12.3-12.3 0-6.8-5.5-12.3-12.3-12.3-6.8 0-12.3 5.5-12.3 12.3 0 6.8 5.5 12.3 12.3 12.3z"/>
	<path id="&lt;Path&gt;" class="s0" d="m206 303.5c8.1 0 14.8-6.6 14.8-14.8 0-8.1-6.7-14.7-14.8-14.7-8.1 0-14.7 6.6-14.7 14.7 0 8.2 6.6 14.8 14.7 14.8z"/>
	<path id="&lt;Path&gt;" class="s0" d="m239.9 305.9c9.5 0 17.2-7.7 17.2-17.2 0-9.5-7.7-17.2-17.2-17.2-9.5 0-17.2 7.7-17.2 17.2 0 9.5 7.7 17.2 17.2 17.2z"/>
	<path id="&lt;Path&gt;" class="s0" d="m273.8 308.2c10.7 0 19.4-8.7 19.4-19.5 0-10.7-8.7-19.4-19.4-19.4-10.8 0-19.5 8.7-19.5 19.4 0 10.8 8.7 19.5 19.5 19.5z"/>
	<path id="&lt;Path&gt;" class="s0" d="m307.6 309.3c11.4 0 20.6-9.2 20.6-20.6 0-11.3-9.2-20.6-20.6-20.6-11.3 0-20.5 9.3-20.5 20.6 0 11.4 9.2 20.6 20.5 20.6z"/>
	<path id="&lt;Path&gt;" class="s0" d="m341.5 309.7c11.6 0 21-9.4 21-21 0-11.5-9.4-20.9-21-20.9-11.5 0-20.9 9.4-20.9 20.9 0 11.6 9.4 21 20.9 21z"/>
	<path id="&lt;Path&gt;" class="s0" d="m375.4 309.7c11.6 0 21-9.4 21-21 0-11.5-9.4-20.9-21-20.9-11.6 0-20.9 9.4-20.9 20.9 0 11.6 9.3 21 20.9 21z"/>
	<path id="&lt;Path&gt;" class="s0" d="m409.3 309.7c11.6 0 20.9-9.4 20.9-21 0-11.5-9.3-20.9-20.9-20.9-11.6 0-21 9.4-21 20.9 0 11.6 9.4 21 21 21z"/>
	<path id="&lt;Path&gt;" class="s0" d="m443.2 309.7c11.5 0 20.9-9.4 20.9-21 0-11.5-9.4-20.9-20.9-20.9-11.6 0-21 9.4-21 20.9 0 11.6 9.4 21 21 21z"/>
	<path id="&lt;Path&gt;" class="s0" d="m477.1 309.3c11.3 0 20.5-9.2 20.5-20.6 0-11.3-9.2-20.6-20.5-20.6-11.4 0-20.6 9.3-20.6 20.6 0 11.4 9.2 20.6 20.6 20.6z"/>
	<path id="&lt;Path&gt;" class="s0" d="m510.9 308.4c10.9 0 19.7-8.8 19.7-19.7 0-10.8-8.8-19.6-19.7-19.6-10.8 0-19.6 8.8-19.6 19.6 0 10.9 8.8 19.7 19.6 19.7z"/>
	<path id="&lt;Path&gt;" class="s0" d="m544.8 306.2c9.7 0 17.5-7.8 17.5-17.5 0-9.6-7.8-17.4-17.5-17.4-9.6 0-17.5 7.8-17.5 17.4 0 9.7 7.9 17.5 17.5 17.5z"/>
	<path id="&lt;Path&gt;" class="s0" d="m578.7 303.8c8.3 0 15-6.8 15-15.1 0-8.3-6.7-15-15-15-8.3 0-15 6.7-15 15 0 8.3 6.7 15.1 15 15.1z"/>
	<path id="&lt;Path&gt;" class="s0" d="m612.6 301.2c6.9 0 12.5-5.6 12.5-12.5 0-6.9-5.6-12.5-12.5-12.5-6.9 0-12.5 5.6-12.5 12.5 0 6.9 5.6 12.5 12.5 12.5z"/>
	<path id="&lt;Path&gt;" class="s0" d="m646.5 298.8c5.5 0 10-4.5 10-10.1 0-5.5-4.5-10-10-10-5.6 0-10.1 4.5-10.1 10 0 5.6 4.5 10.1 10.1 10.1z"/>
	<path id="&lt;Path&gt;" class="s0" d="m680.3 296.2c4.2 0 7.6-3.3 7.6-7.5 0-4.1-3.4-7.5-7.6-7.5-4.1 0-7.5 3.4-7.5 7.5 0 4.2 3.4 7.5 7.5 7.5z"/>
	<path id="&lt;Path&gt;" class="s0" d="m714.2 293.8c2.8 0 5.1-2.3 5.1-5.1 0-2.8-2.3-5-5.1-5-2.8 0-5 2.2-5 5 0 2.8 2.2 5.1 5 5.1z"/>
	<path id="&lt;Path&gt;" class="s0" d="m748.1 291.3c1.4 0 2.5-1.2 2.5-2.6 0-1.4-1.1-2.5-2.5-2.5-1.4 0-2.5 1.1-2.5 2.5 0 1.4 1.1 2.6 2.5 2.6z"/>
	<path id="&lt;Path&gt;" class="s0" d="m19.7 323.9c0.7 0 1.3-0.6 1.3-1.3 0-0.7-0.6-1.3-1.3-1.3-0.8 0-1.4 0.6-1.4 1.3 0 0.7 0.6 1.3 1.4 1.3z"/>
	<path id="&lt;Path&gt;" class="s0" d="m53.5 326.5c2.2 0 3.9-1.8 3.9-3.9 0-2.1-1.7-3.8-3.9-3.8-2.1 0-3.8 1.7-3.8 3.8 0 2.1 1.7 3.9 3.8 3.9z"/>
	<path id="&lt;Path&gt;" class="s0" d="m87.4 329c3.5 0 6.4-2.9 6.4-6.4 0-3.5-2.9-6.4-6.4-6.4-3.5 0-6.4 2.9-6.4 6.4 0 3.5 2.9 6.4 6.4 6.4z"/>
	<path id="&lt;Path&gt;" class="s0" d="m121.3 331.5c4.9 0 8.9-4 8.9-8.9 0-4.9-4-8.9-8.9-8.9-4.9 0-8.9 4-8.9 8.9 0 4.9 4 8.9 8.9 8.9z"/>
	<path id="&lt;Path&gt;" class="s0" d="m155.2 334.2c6.4 0 11.5-5.2 11.5-11.6 0-6.4-5.1-11.5-11.5-11.5-6.4 0-11.6 5.1-11.6 11.5 0 6.4 5.2 11.6 11.6 11.6z"/>
	<path id="&lt;Path&gt;" class="s0" d="m189.1 336.7c7.7 0 14.1-6.3 14.1-14.1 0-7.8-6.4-14.1-14.1-14.1-7.8 0-14.1 6.3-14.1 14.1 0 7.8 6.3 14.1 14.1 14.1z"/>
	<path id="&lt;Path&gt;" class="s0" d="m222.9 339.3c9.3 0 16.8-7.5 16.8-16.7 0-9.2-7.5-16.7-16.8-16.7-9.2 0-16.7 7.5-16.7 16.7 0 9.2 7.5 16.7 16.7 16.7z"/>
	<path id="&lt;Path&gt;" class="s0" d="m256.8 341.8c10.6 0 19.2-8.6 19.2-19.2 0-10.6-8.6-19.2-19.2-19.2-10.6 0-19.1 8.6-19.1 19.2 0 10.6 8.5 19.2 19.1 19.2z"/>
	<path id="&lt;Path&gt;" class="s0" d="m290.7 343.2c11.4 0 20.6-9.2 20.6-20.6 0-11.4-9.2-20.6-20.6-20.6-11.4 0-20.6 9.2-20.6 20.6 0 11.4 9.2 20.6 20.6 20.6z"/>
	<path id="&lt;Path&gt;" class="s0" d="m324.6 343.6c11.6 0 20.9-9.4 20.9-21 0-11.6-9.3-20.9-20.9-20.9-11.6 0-21 9.3-21 20.9 0 11.6 9.4 21 21 21z"/>
	<path id="&lt;Path&gt;" class="s0" d="m358.5 343.6c11.5 0 20.9-9.4 20.9-21 0-11.6-9.4-20.9-20.9-20.9-11.6 0-21 9.3-21 20.9 0 11.6 9.4 21 21 21z"/>
	<path id="&lt;Path&gt;" class="s0" d="m392.3 343.6c11.6 0 21-9.4 21-21 0-11.6-9.4-20.9-21-20.9-11.5 0-20.9 9.3-20.9 20.9 0 11.6 9.4 21 20.9 21z"/>
	<path id="&lt;Path&gt;" class="s0" d="m426.2 343.6c11.6 0 21-9.4 21-21 0-11.6-9.4-20.9-21-20.9-11.5 0-20.9 9.3-20.9 20.9 0 11.6 9.4 21 20.9 21z"/>
	<path id="&lt;Path&gt;" class="s0" d="m460.1 343.6c11.6 0 21-9.4 21-21 0-11.6-9.4-20.9-21-20.9-11.6 0-20.9 9.3-20.9 20.9 0 11.6 9.3 21 20.9 21z"/>
	<path id="&lt;Path&gt;" class="s0" d="m494 343.3c11.4 0 20.7-9.3 20.7-20.7 0-11.4-9.3-20.7-20.7-20.7-11.4 0-20.7 9.3-20.7 20.7 0 11.4 9.3 20.7 20.7 20.7z"/>
	<path id="&lt;Path&gt;" class="s0" d="m527.9 342c10.7 0 19.3-8.7 19.3-19.4 0-10.7-8.6-19.3-19.3-19.3-10.7 0-19.4 8.6-19.4 19.3 0 10.7 8.7 19.4 19.4 19.4z"/>
	<path id="&lt;Path&gt;" class="s0" d="m561.8 339.6c9.3 0 17-7.6 17-17 0-9.4-7.7-17-17-17-9.4 0-17 7.6-17 17 0 9.4 7.6 17 17 17z"/>
	<path id="&lt;Path&gt;" class="s0" d="m595.6 337c8 0 14.4-6.5 14.4-14.4 0-7.9-6.4-14.4-14.4-14.4-7.9 0-14.3 6.5-14.3 14.4 0 7.9 6.4 14.4 14.3 14.4z"/>
	<path id="&lt;Path&gt;" class="s0" d="m629.5 334.4c6.6 0 11.9-5.3 11.9-11.8 0-6.5-5.3-11.8-11.9-11.8-6.5 0-11.8 5.3-11.8 11.8 0 6.5 5.3 11.8 11.8 11.8z"/>
	<path id="&lt;Path&gt;" class="s0" d="m663.4 331.8c5.1 0 9.2-4.1 9.2-9.2 0-5.1-4.1-9.2-9.2-9.2-5.1 0-9.2 4.1-9.2 9.2 0 5.1 4.1 9.2 9.2 9.2z"/>
	<path id="&lt;Path&gt;" class="s0" d="m697.3 329.3c3.7 0 6.7-3 6.7-6.7 0-3.7-3-6.7-6.7-6.7-3.7 0-6.7 3-6.7 6.7 0 3.7 3 6.7 6.7 6.7z"/>
	<path id="&lt;Path&gt;" class="s0" d="m731.2 326.7c2.2 0 4.1-1.8 4.1-4.1 0-2.3-1.9-4.1-4.1-4.1-2.3 0-4.2 1.8-4.2 4.1 0 2.3 1.9 4.1 4.2 4.1z"/>
	<path id="&lt;Path&gt;" class="s0" d="m36.6 358.8c1.3 0 2.3-1 2.3-2.3 0-1.3-1-2.4-2.3-2.4-1.3 0-2.4 1.1-2.4 2.4 0 1.3 1.1 2.3 2.4 2.3z"/>
	<path id="&lt;Path&gt;" class="s0" d="m70.5 361.4c2.7 0 4.9-2.2 4.9-4.9 0-2.7-2.2-4.9-4.9-4.9-2.7 0-4.9 2.2-4.9 4.9 0 2.7 2.2 4.9 4.9 4.9z"/>
	<path id="&lt;Path&gt;" class="s0" d="m104.4 363.8c4 0 7.3-3.3 7.3-7.3 0-4.1-3.3-7.3-7.3-7.3-4.1 0-7.4 3.2-7.4 7.3 0 4 3.3 7.3 7.4 7.3z"/>
	<path id="&lt;Path&gt;" class="s0" d="m138.2 366.4c5.5 0 9.9-4.5 9.9-9.9 0-5.5-4.4-9.9-9.9-9.9-5.4 0-9.8 4.4-9.8 9.9 0 5.4 4.4 9.9 9.8 9.9z"/>
	<path id="&lt;Path&gt;" class="s0" d="m172.1 368.9c6.9 0 12.4-5.6 12.4-12.4 0-6.9-5.5-12.4-12.4-12.4-6.8 0-12.4 5.5-12.4 12.4 0 6.8 5.6 12.4 12.4 12.4z"/>
	<path id="&lt;Path&gt;" class="s0" d="m206 371.3c8.2 0 14.8-6.6 14.8-14.8 0-8.2-6.6-14.9-14.8-14.9-8.2 0-14.8 6.7-14.8 14.9 0 8.2 6.6 14.8 14.8 14.8z"/>
	<path id="&lt;Path&gt;" class="s0" d="m239.9 373.9c9.6 0 17.4-7.8 17.4-17.4 0-9.6-7.8-17.4-17.4-17.4-9.6 0-17.4 7.8-17.4 17.4 0 9.6 7.8 17.4 17.4 17.4z"/>
	<path id="&lt;Path&gt;" class="s0" d="m273.8 376c10.8 0 19.5-8.7 19.5-19.5 0-10.8-8.7-19.6-19.5-19.6-10.8 0-19.6 8.8-19.6 19.6 0 10.8 8.8 19.5 19.6 19.5z"/>
	<path id="&lt;Path&gt;" class="s0" d="m307.6 377.2c11.5 0 20.7-9.3 20.7-20.7 0-11.4-9.2-20.7-20.7-20.7-11.4 0-20.6 9.3-20.6 20.7 0 11.4 9.2 20.7 20.6 20.7z"/>
	<path id="&lt;Path&gt;" class="s0" d="m341.5 377.4c11.6 0 21-9.3 21-20.9 0-11.6-9.4-21-21-21-11.5 0-20.9 9.4-20.9 21 0 11.6 9.4 20.9 20.9 20.9z"/>
	<path id="&lt;Path&gt;" class="s0" d="m375.4 377.4c11.6 0 21-9.3 21-20.9 0-11.6-9.4-21-21-21-11.6 0-20.9 9.4-20.9 21 0 11.6 9.3 20.9 20.9 20.9z"/>
	<path id="&lt;Path&gt;" class="s0" d="m409.3 377.4c11.6 0 20.9-9.3 20.9-20.9 0-11.6-9.3-21-20.9-21-11.6 0-21 9.4-21 21 0 11.6 9.4 20.9 21 20.9z"/>
	<path id="&lt;Path&gt;" class="s0" d="m443.2 377.4c11.5 0 20.9-9.3 20.9-20.9 0-11.6-9.4-21-20.9-21-11.6 0-21 9.4-21 21 0 11.6 9.4 20.9 21 20.9z"/>
	<path id="&lt;Path&gt;" class="s0" d="m477.1 377.2c11.4 0 20.6-9.3 20.6-20.7 0-11.4-9.2-20.7-20.6-20.7-11.5 0-20.7 9.3-20.7 20.7 0 11.4 9.2 20.7 20.7 20.7z"/>
	<path id="&lt;Path&gt;" class="s0" d="m510.9 376.2c10.9 0 19.8-8.8 19.8-19.7 0-10.9-8.9-19.7-19.8-19.7-10.9 0-19.7 8.8-19.7 19.7 0 10.9 8.8 19.7 19.7 19.7z"/>
	<path id="&lt;Path&gt;" class="s0" d="m544.8 374.1c9.7 0 17.6-7.9 17.6-17.6 0-9.7-7.9-17.6-17.6-17.6-9.7 0-17.6 7.9-17.6 17.6 0 9.7 7.9 17.6 17.6 17.6z"/>
	<path id="&lt;Path&gt;" class="s0" d="m578.7 371.6c8.4 0 15.1-6.8 15.1-15.1 0-8.4-6.7-15.1-15.1-15.1-8.4 0-15.1 6.7-15.1 15.1 0 8.3 6.7 15.1 15.1 15.1z"/>
	<path id="&lt;Path&gt;" class="s0" d="m612.6 369.1c6.9 0 12.6-5.7 12.6-12.6 0-7-5.7-12.6-12.6-12.6-7 0-12.6 5.6-12.6 12.6 0 6.9 5.6 12.6 12.6 12.6z"/>
	<path id="&lt;Path&gt;" class="s0" d="m646.5 366.6c5.6 0 10.1-4.5 10.1-10.1 0-5.6-4.5-10.2-10.1-10.2-5.6 0-10.2 4.6-10.2 10.2 0 5.6 4.6 10.1 10.2 10.1z"/>
	<path id="&lt;Path&gt;" class="s0" d="m680.3 364.1c4.2 0 7.7-3.4 7.7-7.6 0-4.2-3.5-7.6-7.7-7.6-4.2 0-7.6 3.4-7.6 7.6 0 4.2 3.4 7.6 7.6 7.6z"/>
	<path id="&lt;Path&gt;" class="s0" d="m714.2 361.6c2.8 0 5.1-2.3 5.1-5.1 0-2.8-2.3-5.1-5.1-5.1-2.8 0-5 2.3-5 5.1 0 2.8 2.2 5.1 5 5.1z"/>
	<path id="&lt;Path&gt;" class="s0" d="m748.1 359c1.4 0 2.5-1.1 2.5-2.5 0-1.4-1.1-2.5-2.5-2.5-1.4 0-2.5 1.1-2.5 2.5 0 1.4 1.1 2.5 2.5 2.5z"/>
	<path id="&lt;Path&gt;" class="s0" d="m19.7 390.8c0.2 0 0.4-0.2 0.4-0.4 0-0.3-0.2-0.5-0.4-0.5-0.3 0-0.5 0.2-0.5 0.5 0 0.2 0.2 0.4 0.5 0.4z"/>
	<path id="&lt;Path&gt;" class="s0" d="m53.5 393c1.5 0 2.7-1.2 2.7-2.6 0-1.5-1.2-2.7-2.7-2.7-1.4 0-2.6 1.2-2.6 2.7 0 1.4 1.2 2.6 2.6 2.6z"/>
	<path id="&lt;Path&gt;" class="s0" d="m87.4 395.4c2.8 0 5.1-2.2 5.1-5 0-2.8-2.3-5.1-5.1-5.1-2.8 0-5.1 2.3-5.1 5.1 0 2.8 2.3 5 5.1 5z"/>
	<path id="&lt;Path&gt;" class="s0" d="m121.3 397.9c4.1 0 7.5-3.4 7.5-7.5 0-4.2-3.4-7.5-7.5-7.5-4.2 0-7.5 3.3-7.5 7.5 0 4.1 3.3 7.5 7.5 7.5z"/>
	<path id="&lt;Path&gt;" class="s0" d="m155.2 400.2c5.4 0 9.8-4.4 9.8-9.8 0-5.5-4.4-9.9-9.8-9.9-5.5 0-9.9 4.4-9.9 9.9 0 5.4 4.4 9.8 9.9 9.8z"/>
	<path id="&lt;Path&gt;" class="s0" d="m189.1 402.6c6.7 0 12.2-5.5 12.2-12.2 0-6.8-5.5-12.2-12.2-12.2-6.8 0-12.3 5.4-12.3 12.2 0 6.7 5.5 12.2 12.3 12.2z"/>
	<path id="&lt;Path&gt;" class="s0" d="m222.9 404.8c8 0 14.5-6.4 14.5-14.4 0-8-6.5-14.5-14.5-14.5-7.9 0-14.4 6.5-14.4 14.5 0 8 6.5 14.4 14.4 14.4z"/>
	<path id="&lt;Path&gt;" class="s0" d="m256.8 406.9c9.2 0 16.6-7.4 16.6-16.5 0-9.2-7.4-16.6-16.6-16.6-9.1 0-16.5 7.4-16.5 16.6 0 9.1 7.4 16.5 16.5 16.5z"/>
	<path id="&lt;Path&gt;" class="s0" d="m290.7 408.9c10.2 0 18.5-8.3 18.5-18.5 0-10.3-8.3-18.5-18.5-18.5-10.2 0-18.5 8.2-18.5 18.5 0 10.2 8.3 18.5 18.5 18.5z"/>
	<path id="&lt;Path&gt;" class="s0" d="m324.6 410.1c10.9 0 19.7-8.8 19.7-19.7 0-10.9-8.8-19.8-19.7-19.8-10.9 0-19.7 8.9-19.7 19.8 0 10.9 8.8 19.7 19.7 19.7z"/>
	<path id="&lt;Path&gt;" class="s0" d="m358.5 410.7c11.2 0 20.3-9.1 20.3-20.3 0-11.2-9.1-20.3-20.3-20.3-11.2 0-20.3 9.1-20.3 20.3 0 11.2 9.1 20.3 20.3 20.3z"/>
	<path id="&lt;Path&gt;" class="s0" d="m392.3 410.9c11.4 0 20.5-9.2 20.5-20.5 0-11.3-9.1-20.5-20.5-20.5-11.3 0-20.4 9.2-20.4 20.5 0 11.3 9.1 20.5 20.4 20.5z"/>
	<path id="&lt;Path&gt;" class="s0" d="m426.2 410.8c11.3 0 20.4-9.2 20.4-20.4 0-11.3-9.1-20.4-20.4-20.4-11.2 0-20.4 9.1-20.4 20.4 0 11.2 9.2 20.4 20.4 20.4z"/>
	<path id="&lt;Path&gt;" class="s0" d="m460.1 410.2c11 0 19.8-8.9 19.8-19.8 0-11-8.8-19.9-19.8-19.9-10.9 0-19.8 8.9-19.8 19.9 0 10.9 8.9 19.8 19.8 19.8z"/>
	<path id="&lt;Path&gt;" class="s0" d="m494 409.1c10.3 0 18.7-8.4 18.7-18.7 0-10.4-8.4-18.7-18.7-18.7-10.3 0-18.7 8.3-18.7 18.7 0 10.3 8.4 18.7 18.7 18.7z"/>
	<path id="&lt;Path&gt;" class="s0" d="m527.9 407.1c9.2 0 16.7-7.5 16.7-16.7 0-9.3-7.5-16.8-16.7-16.8-9.3 0-16.7 7.5-16.7 16.8 0 9.2 7.4 16.7 16.7 16.7z"/>
	<path id="&lt;Path&gt;" class="s0" d="m561.8 405c8.1 0 14.6-6.5 14.6-14.6 0-8.1-6.5-14.7-14.6-14.7-8.1 0-14.7 6.6-14.7 14.7 0 8.1 6.6 14.6 14.7 14.6z"/>
	<path id="&lt;Path&gt;" class="s0" d="m595.6 402.8c6.9 0 12.4-5.6 12.4-12.4 0-6.9-5.5-12.4-12.4-12.4-6.8 0-12.4 5.5-12.4 12.4 0 6.8 5.6 12.4 12.4 12.4z"/>
	<path id="&lt;Path&gt;" class="s0" d="m629.5 400.4c5.6 0 10.1-4.5 10.1-10 0-5.6-4.5-10.1-10.1-10.1-5.5 0-10 4.5-10 10.1 0 5.5 4.5 10 10 10z"/>
	<path id="&lt;Path&gt;" class="s0" d="m663.4 398.1c4.3 0 7.7-3.5 7.7-7.7 0-4.3-3.4-7.7-7.7-7.7-4.3 0-7.7 3.4-7.7 7.7 0 4.2 3.4 7.7 7.7 7.7z"/>
	<path id="&lt;Path&gt;" class="s0" d="m697.3 395.7c2.9 0 5.3-2.4 5.3-5.3 0-3-2.4-5.4-5.3-5.4-3 0-5.4 2.4-5.4 5.4 0 2.9 2.4 5.3 5.4 5.3z"/>
	<path id="&lt;Path&gt;" class="s0" d="m731.2 393.3c1.6 0 2.9-1.3 2.9-2.9 0-1.6-1.3-2.9-2.9-2.9-1.6 0-2.9 1.3-2.9 2.9 0 1.6 1.3 2.9 2.9 2.9z"/>
	<path id="&lt;Path&gt;" class="s0" d="m36.6 424.6c0.2 0 0.4-0.1 0.4-0.3 0-0.3-0.2-0.4-0.4-0.4-0.2 0-0.4 0.1-0.4 0.4 0 0.2 0.2 0.3 0.4 0.3z"/>
	<path id="&lt;Path&gt;" class="s0" d="m70.5 426.6c1.3 0 2.3-1.1 2.3-2.3 0-1.3-1-2.4-2.3-2.4-1.3 0-2.4 1.1-2.4 2.4 0 1.2 1.1 2.3 2.4 2.3z"/>
	<path id="&lt;Path&gt;" class="s0" d="m104.4 428.9c2.5 0 4.6-2.1 4.6-4.6 0-2.6-2.1-4.7-4.6-4.7-2.6 0-4.6 2.1-4.6 4.7 0 2.5 2 4.6 4.6 4.6z"/>
	<path id="&lt;Path&gt;" class="s0" d="m138.2 431.1c3.8 0 6.9-3.1 6.9-6.8 0-3.8-3.1-6.9-6.9-6.9-3.8 0-6.8 3.1-6.8 6.9 0 3.7 3 6.8 6.8 6.8z"/>
	<path id="&lt;Path&gt;" class="s0" d="m172.1 433.2c4.9 0 8.9-4 8.9-8.9 0-5-4-9-8.9-9-4.9 0-8.9 4-8.9 9 0 4.9 4 8.9 8.9 8.9z"/>
	<path id="&lt;Path&gt;" class="s0" d="m206 435.2c6.1 0 11-4.9 11-10.9 0-6.1-4.9-11-11-11-6.1 0-11 4.9-11 11 0 6 4.9 10.9 11 10.9z"/>
	<path id="&lt;Path&gt;" class="s0" d="m239.9 437.1c7.1 0 12.9-5.7 12.9-12.8 0-7.2-5.8-12.9-12.9-12.9-7.1 0-12.9 5.7-12.9 12.9 0 7.1 5.8 12.8 12.9 12.8z"/>
	<path id="&lt;Path&gt;" class="s0" d="m273.8 438.8c8 0 14.5-6.5 14.5-14.5 0-8.1-6.5-14.6-14.5-14.6-8.1 0-14.6 6.5-14.6 14.6 0 8 6.5 14.5 14.6 14.5z"/>
	<path id="&lt;Path&gt;" class="s0" d="m307.6 440.2c8.9 0 16-7.1 16-15.9 0-8.9-7.1-16-16-16-8.8 0-15.9 7.1-15.9 16 0 8.8 7.1 15.9 15.9 15.9z"/>
	<path id="&lt;Path&gt;" class="s0" d="m341.5 441.3c9.4 0 17-7.7 17-17 0-9.4-7.6-17.1-17-17.1-9.4 0-17 7.7-17 17.1 0 9.3 7.6 17 17 17z"/>
	<path id="&lt;Path&gt;" class="s0" d="m375.4 441.8c9.7 0 17.6-7.8 17.6-17.5 0-9.8-7.9-17.6-17.6-17.6-9.7 0-17.6 7.8-17.6 17.6 0 9.7 7.9 17.5 17.6 17.5z"/>
	<path id="&lt;Path&gt;" class="s0" d="m409.3 441.8c9.7 0 17.6-7.8 17.6-17.5 0-9.8-7.9-17.6-17.6-17.6-9.7 0-17.6 7.8-17.6 17.6 0 9.7 7.9 17.5 17.6 17.5z"/>
	<path id="&lt;Path&gt;" class="s0" d="m443.2 441.4c9.4 0 17.1-7.7 17.1-17.1 0-9.5-7.7-17.1-17.1-17.1-9.5 0-17.1 7.6-17.1 17.1 0 9.4 7.6 17.1 17.1 17.1z"/>
	<path id="&lt;Path&gt;" class="s0" d="m477.1 440.3c8.8 0 16-7.2 16-16 0-8.9-7.2-16.1-16-16.1-8.9 0-16.1 7.2-16.1 16.1 0 8.8 7.2 16 16.1 16z"/>
	<path id="&lt;Path&gt;" class="s0" d="m510.9 438.9c8.1 0 14.7-6.6 14.7-14.6 0-8.1-6.6-14.7-14.7-14.7-8.1 0-14.6 6.6-14.6 14.7 0 8 6.5 14.6 14.6 14.6z"/>
	<path id="&lt;Path&gt;" class="s0" d="m544.8 437.3c7.2 0 13.1-5.8 13.1-13 0-7.3-5.9-13.1-13.1-13.1-7.2 0-13 5.8-13 13.1 0 7.2 5.8 13 13 13z"/>
	<path id="&lt;Path&gt;" class="s0" d="m578.7 435.4c6.2 0 11.2-5 11.2-11.1 0-6.2-5-11.2-11.2-11.2-6.2 0-11.2 5-11.2 11.2 0 6.1 5 11.1 11.2 11.1z"/>
	<path id="&lt;Path&gt;" class="s0" d="m612.6 433.4c5 0 9.1-4.1 9.1-9.1 0-5.1-4.1-9.2-9.1-9.2-5.1 0-9.1 4.1-9.1 9.2 0 5 4 9.1 9.1 9.1z"/>
	<path id="&lt;Path&gt;" class="s0" d="m646.5 431.3c3.9 0 7-3.2 7-7 0-3.9-3.1-7.1-7-7.1-3.9 0-7.1 3.2-7.1 7.1 0 3.8 3.2 7 7.1 7z"/>
	<path id="&lt;Path&gt;" class="s0" d="m680.3 429.1c2.7 0 4.9-2.2 4.9-4.8 0-2.7-2.2-4.9-4.9-4.9-2.7 0-4.8 2.2-4.8 4.9 0 2.6 2.1 4.8 4.8 4.8z"/>
	<path id="&lt;Path&gt;" class="s0" d="m714.2 426.8c1.4 0 2.6-1.1 2.6-2.5 0-1.4-1.2-2.6-2.6-2.6-1.4 0-2.5 1.2-2.5 2.6 0 1.4 1.1 2.5 2.5 2.5z"/>
	<path id="&lt;Path&gt;" class="s0" d="m748.1 424.7c0.3 0 0.5-0.2 0.5-0.4 0-0.3-0.2-0.5-0.5-0.5-0.3 0-0.5 0.2-0.5 0.5 0 0.2 0.2 0.4 0.5 0.4z"/>
	<path id="&lt;Path&gt;" class="s0" d="m53.5 458.2q0.1 0 0.1-0.1 0-0.1-0.1-0.1-0.1 0-0.1 0.1 0 0.1 0.1 0.1z"/>
	<path id="&lt;Path&gt;" class="s0" d="m87.4 459.5c0.8 0 1.4-0.6 1.4-1.4 0-0.7-0.6-1.4-1.4-1.4-0.8 0-1.4 0.7-1.4 1.4 0 0.8 0.6 1.4 1.4 1.4z"/>
	<path id="&lt;Path&gt;" class="s0" d="m121.3 461.6c1.9 0 3.5-1.5 3.5-3.5 0-1.9-1.6-3.4-3.5-3.4-1.9 0-3.5 1.5-3.5 3.4 0 2 1.6 3.5 3.5 3.5z"/>
	<path id="&lt;Path&gt;" class="s0" d="m155.2 463.6c3 0 5.4-2.5 5.4-5.5 0-3-2.4-5.4-5.4-5.4-3 0-5.5 2.4-5.5 5.4 0 3 2.5 5.5 5.5 5.5z"/>
	<path id="&lt;Path&gt;" class="s0" d="m189.1 465.4c4 0 7.2-3.3 7.2-7.3 0-4-3.2-7.2-7.2-7.2-4 0-7.3 3.2-7.3 7.2 0 4 3.3 7.3 7.3 7.3z"/>
	<path id="&lt;Path&gt;" class="s0" d="m222.9 467.1c5 0 9-4 9-9 0-4.9-4-8.9-9-8.9-4.9 0-8.9 4-8.9 8.9 0 5 4 9 8.9 9z"/>
	<path id="&lt;Path&gt;" class="s0" d="m256.8 468.6c5.8 0 10.5-4.7 10.5-10.5 0-5.7-4.7-10.4-10.5-10.4-5.7 0-10.4 4.7-10.4 10.4 0 5.8 4.7 10.5 10.4 10.5z"/>
	<path id="&lt;Path&gt;" class="s0" d="m290.7 469.9c6.5 0 11.7-5.3 11.7-11.8 0-6.5-5.2-11.7-11.7-11.7-6.5 0-11.7 5.2-11.7 11.7 0 6.5 5.2 11.8 11.7 11.8z"/>
	<path id="&lt;Path&gt;" class="s0" d="m324.6 470.8c7 0 12.7-5.7 12.7-12.7 0-7-5.7-12.7-12.7-12.7-7 0-12.7 5.7-12.7 12.7 0 7 5.7 12.7 12.7 12.7z"/>
	<path id="&lt;Path&gt;" class="s0" d="m358.5 471.4c7.3 0 13.2-6 13.2-13.3 0-7.3-5.9-13.2-13.2-13.2-7.3 0-13.3 5.9-13.3 13.2 0 7.3 6 13.3 13.3 13.3z"/>
	<path id="&lt;Path&gt;" class="s0" d="m392.3 471.7c7.5 0 13.6-6.1 13.6-13.6 0-7.4-6.1-13.5-13.6-13.5-7.4 0-13.5 6.1-13.5 13.5 0 7.5 6.1 13.6 13.5 13.6z"/>
	<path id="&lt;Path&gt;" class="s0" d="m426.2 471.5c7.4 0 13.4-6 13.4-13.4 0-7.3-6-13.3-13.4-13.3-7.3 0-13.3 6-13.3 13.3 0 7.4 6 13.4 13.3 13.4z"/>
	<path id="&lt;Path&gt;" class="s0" d="m460.1 470.9c7.1 0 12.8-5.7 12.8-12.8 0-7-5.7-12.7-12.8-12.7-7 0-12.8 5.7-12.8 12.7 0 7.1 5.8 12.8 12.8 12.8z"/>
	<path id="&lt;Path&gt;" class="s0" d="m494 470c6.5 0 11.8-5.3 11.8-11.9 0-6.5-5.3-11.8-11.8-11.8-6.5 0-11.8 5.3-11.8 11.8 0 6.6 5.3 11.9 11.8 11.9z"/>
	<path id="&lt;Path&gt;" class="s0" d="m527.9 468.7c5.8 0 10.5-4.8 10.5-10.6 0-5.8-4.7-10.5-10.5-10.5-5.8 0-10.5 4.7-10.5 10.5 0 5.8 4.7 10.6 10.5 10.6z"/>
	<path id="&lt;Path&gt;" class="s0" d="m561.8 467.2c5 0 9.1-4 9.1-9.1 0-5-4.1-9.1-9.1-9.1-5.1 0-9.2 4.1-9.2 9.1 0 5.1 4.1 9.1 9.2 9.1z"/>
	<path id="&lt;Path&gt;" class="s0" d="m595.6 465.6c4.1 0 7.5-3.4 7.5-7.5 0-4.1-3.4-7.4-7.5-7.4-4.1 0-7.4 3.3-7.4 7.4 0 4.1 3.3 7.5 7.4 7.5z"/>
	<path id="&lt;Path&gt;" class="s0" d="m629.5 463.8c3.1 0 5.7-2.6 5.7-5.7 0-3.1-2.6-5.6-5.7-5.6-3.1 0-5.6 2.5-5.6 5.6 0 3.1 2.5 5.7 5.6 5.7z"/>
	<path id="&lt;Path&gt;" class="s0" d="m663.4 461.8c2 0 3.7-1.6 3.7-3.7 0-2-1.7-3.6-3.7-3.6-2 0-3.7 1.6-3.7 3.6 0 2.1 1.7 3.7 3.7 3.7z"/>
	<path id="&lt;Path&gt;" class="s0" d="m697.3 459.7c0.9 0 1.6-0.7 1.6-1.6 0-0.8-0.7-1.6-1.6-1.6-0.9 0-1.6 0.8-1.6 1.6 0 0.9 0.7 1.6 1.6 1.6z"/>
	<path id="&lt;Path&gt;" class="s0" d="m731.2 458.3c0.1 0 0.2-0.1 0.2-0.2 0-0.1-0.1-0.2-0.2-0.2-0.1 0-0.2 0.1-0.2 0.2 0 0.1 0.1 0.2 0.2 0.2z"/>
	<path id="&lt;Path&gt;" class="s0" d="m104.4 492.3c0.1 0 0.2-0.1 0.2-0.3 0-0.1-0.1-0.3-0.2-0.3-0.2 0-0.3 0.2-0.3 0.3 0 0.2 0.1 0.3 0.3 0.3z"/>
	<path id="&lt;Path&gt;" class="s0" d="m138.2 493.7c1 0 1.7-0.8 1.7-1.7 0-0.9-0.7-1.7-1.7-1.7-0.9 0-1.7 0.8-1.7 1.7 0 0.9 0.8 1.7 1.7 1.7z"/>
	<path id="&lt;Path&gt;" class="s0" d="m172.1 495.4c1.9 0 3.4-1.5 3.4-3.4 0-1.9-1.5-3.4-3.4-3.4-1.8 0-3.4 1.5-3.4 3.4 0 1.9 1.6 3.4 3.4 3.4z"/>
	<path id="&lt;Path&gt;" class="s0" d="m206 496.9c2.7 0 4.9-2.2 4.9-4.9 0-2.7-2.2-4.9-4.9-4.9-2.7 0-4.9 2.2-4.9 4.9 0 2.7 2.2 4.9 4.9 4.9z"/>
	<path id="&lt;Path&gt;" class="s0" d="m239.9 498.3c3.5 0 6.3-2.8 6.3-6.3 0-3.5-2.8-6.3-6.3-6.3-3.5 0-6.3 2.8-6.3 6.3 0 3.5 2.8 6.3 6.3 6.3z"/>
	<path id="&lt;Path&gt;" class="s0" d="m273.8 499.5c4.1 0 7.5-3.3 7.5-7.5 0-4.1-3.4-7.5-7.5-7.5-4.2 0-7.6 3.4-7.6 7.5 0 4.2 3.4 7.5 7.6 7.5z"/>
	<path id="&lt;Path&gt;" class="s0" d="m307.6 500.4c4.7 0 8.4-3.8 8.4-8.4 0-4.6-3.7-8.3-8.4-8.3-4.6 0-8.3 3.7-8.3 8.3 0 4.6 3.7 8.4 8.3 8.4z"/>
	<path id="&lt;Path&gt;" class="s0" d="m341.5 501c5 0 9-4 9-9 0-5-4-9-9-9-5 0-9 4-9 9 0 5 4 9 9 9z"/>
	<path id="&lt;Path&gt;" class="s0" d="m375.4 501.4c5.2 0 9.4-4.2 9.4-9.4 0-5.2-4.2-9.4-9.4-9.4-5.2 0-9.4 4.2-9.4 9.4 0 5.2 4.2 9.4 9.4 9.4z"/>
	<path id="&lt;Path&gt;" class="s0" d="m409.3 501.4c5.2 0 9.4-4.2 9.4-9.4 0-5.2-4.2-9.4-9.4-9.4-5.2 0-9.4 4.2-9.4 9.4 0 5.2 4.2 9.4 9.4 9.4z"/>
	<path id="&lt;Path&gt;" class="s0" d="m443.2 501.1c5 0 9.1-4.1 9.1-9.1 0-5-4.1-9.1-9.1-9.1-5.1 0-9.1 4.1-9.1 9.1 0 5 4 9.1 9.1 9.1z"/>
	<path id="&lt;Path&gt;" class="s0" d="m477.1 500.5c4.6 0 8.4-3.8 8.4-8.5 0-4.7-3.8-8.4-8.4-8.4-4.7 0-8.5 3.7-8.5 8.4 0 4.7 3.8 8.5 8.5 8.5z"/>
	<path id="&lt;Path&gt;" class="s0" d="m510.9 499.6c4.2 0 7.6-3.4 7.6-7.6 0-4.2-3.4-7.6-7.6-7.6-4.2 0-7.6 3.4-7.6 7.6 0 4.2 3.4 7.6 7.6 7.6z"/>
	<path id="&lt;Path&gt;" class="s0" d="m544.8 498.5c3.6 0 6.5-2.9 6.5-6.5 0-3.6-2.9-6.5-6.5-6.5-3.6 0-6.5 2.9-6.5 6.5 0 3.6 2.9 6.5 6.5 6.5z"/>
	<path id="&lt;Path&gt;" class="s0" d="m578.7 497.1c2.8 0 5.1-2.3 5.1-5.1 0-2.8-2.3-5.1-5.1-5.1-2.8 0-5.1 2.3-5.1 5.1 0 2.8 2.3 5.1 5.1 5.1z"/>
	<path id="&lt;Path&gt;" class="s0" d="m612.6 495.5c1.9 0 3.5-1.6 3.5-3.5 0-1.9-1.6-3.5-3.5-3.5-1.9 0-3.5 1.6-3.5 3.5 0 1.9 1.6 3.5 3.5 3.5z"/>
	<path id="&lt;Path&gt;" class="s0" d="m646.5 493.8c0.9 0 1.7-0.8 1.7-1.8 0-1-0.8-1.8-1.7-1.8-1 0-1.8 0.8-1.8 1.8 0 1 0.8 1.8 1.8 1.8z"/>
	<path id="&lt;Path&gt;" class="s0" d="m680.3 492.4c0.3 0 0.4-0.2 0.4-0.4 0-0.2-0.2-0.4-0.4-0.4-0.2 0-0.3 0.2-0.3 0.4 0 0.2 0.1 0.4 0.3 0.4z"/>
	<path id="&lt;Path&gt;" class="s0" d="m155.2 526.1c0.1 0 0.2-0.1 0.2-0.2 0-0.1-0.1-0.2-0.2-0.2-0.1 0-0.2 0.1-0.2 0.2 0 0.1 0.1 0.2 0.2 0.2z"/>
	<path id="&lt;Path&gt;" class="s0" d="m189.1 526.8c0.5 0 0.9-0.4 0.9-0.9 0-0.5-0.4-0.9-0.9-0.9-0.6 0-1 0.4-1 0.9 0 0.5 0.4 0.9 1 0.9z"/>
	<path id="&lt;Path&gt;" class="s0" d="m222.9 528.1c1.2 0 2.2-1 2.2-2.2 0-1.2-1-2.2-2.2-2.2-1.2 0-2.1 1-2.1 2.2 0 1.2 0.9 2.2 2.1 2.2z"/>
	<path id="&lt;Path&gt;" class="s0" d="m256.8 529.1c1.8 0 3.2-1.4 3.2-3.2 0-1.8-1.4-3.2-3.2-3.2-1.7 0-3.2 1.4-3.2 3.2 0 1.8 1.5 3.2 3.2 3.2z"/>
	<path id="&lt;Path&gt;" class="s0" d="m290.7 530c2.3 0 4.1-1.8 4.1-4.1 0-2.3-1.8-4.1-4.1-4.1-2.3 0-4.1 1.8-4.1 4.1 0 2.3 1.8 4.1 4.1 4.1z"/>
	<path id="&lt;Path&gt;" class="s0" d="m324.6 530.7c2.6 0 4.8-2.2 4.8-4.8 0-2.6-2.2-4.8-4.8-4.8-2.7 0-4.8 2.2-4.8 4.8 0 2.6 2.1 4.8 4.8 4.8z"/>
	<path id="&lt;Path&gt;" class="s0" d="m358.5 531.2c2.9 0 5.2-2.4 5.2-5.3 0-2.9-2.3-5.3-5.2-5.3-2.9 0-5.3 2.4-5.3 5.3 0 2.9 2.4 5.3 5.3 5.3z"/>
	<path id="&lt;Path&gt;" class="s0" d="m392.3 531.3c3 0 5.4-2.4 5.4-5.4 0-3-2.4-5.4-5.4-5.4-2.9 0-5.3 2.4-5.3 5.4 0 3 2.4 5.4 5.3 5.4z"/>
	<path id="&lt;Path&gt;" class="s0" d="m426.2 531.2c2.9 0 5.3-2.4 5.3-5.3 0-2.9-2.4-5.3-5.3-5.3-2.9 0-5.2 2.4-5.2 5.3 0 2.9 2.3 5.3 5.2 5.3z"/>
	<path id="&lt;Path&gt;" class="s0" d="m460.1 530.8c2.7 0 4.9-2.2 4.9-4.9 0-2.7-2.2-4.9-4.9-4.9-2.7 0-4.9 2.2-4.9 4.9 0 2.7 2.2 4.9 4.9 4.9z"/>
	<path id="&lt;Path&gt;" class="s0" d="m494 530.1c2.3 0 4.2-1.9 4.2-4.2 0-2.3-1.9-4.2-4.2-4.2-2.3 0-4.2 1.9-4.2 4.2 0 2.3 1.9 4.2 4.2 4.2z"/>
	<path id="&lt;Path&gt;" class="s0" d="m527.9 529.2c1.8 0 3.3-1.5 3.3-3.3 0-1.8-1.5-3.3-3.3-3.3-1.8 0-3.3 1.5-3.3 3.3 0 1.8 1.5 3.3 3.3 3.3z"/>
	<path id="&lt;Path&gt;" class="s0" d="m561.8 528.2c1.2 0 2.2-1.1 2.2-2.3 0-1.2-1-2.3-2.2-2.3-1.3 0-2.3 1.1-2.3 2.3 0 1.2 1 2.3 2.3 2.3z"/>
	<path id="&lt;Path&gt;" class="s0" d="m595.6 526.9c0.6 0 1.1-0.4 1.1-1 0-0.6-0.5-1-1.1-1-0.5 0-1 0.4-1 1 0 0.6 0.5 1 1 1z"/>
	<path id="&lt;Path&gt;" class="s0" d="m629.5 526.1c0.1 0 0.2-0.1 0.2-0.2 0-0.1-0.1-0.2-0.2-0.2-0.1 0-0.2 0.1-0.2 0.2 0 0.1 0.1 0.2 0.2 0.2z"/>
	<path id="&lt;Compound Path&gt;" fill-rule="evenodd" class="s0" d="m347.1 462.4c-53.1 0-97.7-37.3-108.9-87.1q-5.5 0.5-11.1 0.5c-61.5 0-111.6-50-111.6-111.5 0-25.9 9.1-51 25.4-70.8-2-8.7-2.9-17.7-2.9-26.8 0-67.6 54.9-122.6 122.6-122.6 14.2 0 28.2 2.5 41.5 7.2 14.2-20.9 38.2-34.3 64.9-34.3 16.1 0 31.6 5 44.6 13.9 14.6-8.8 31.6-13.7 49-13.7 36.9 0 69.5 21.2 85 53.1q5-0.5 10-0.5c61.5 0 111.5 50.1 111.5 111.6 0 19.6-5.1 38.6-14.7 55.3 19.8 20.5 31.1 48 31.1 77.3 0 61.5-50.1 111.5-111.6 111.5-12 0-23.9-1.9-35.2-5.7-19.3 14.7-43.2 22.9-67.7 22.9-16.2 0-31.8-3.4-46.2-10-20.4 18.9-47.5 29.7-75.7 29.7zm-58.1-157.5l-3.2 41.1q-0.2 2.4-0.2 4.8c0 33.9 27.6 61.5 61.5 61.5 19.9 0 38.6-9.7 50.2-26l14.7-20.8 20.6 15.2c10.6 7.8 23.2 11.9 36.4 11.9 17.1 0 32.9-6.8 44.7-19.2l13-13.7 16.8 8.8c8.8 4.6 18.3 7 28.4 7 33.9 0 61.5-27.6 61.5-61.5 0-21.2-10.7-40.6-28.5-51.9l-25.7-16.3 20.9-22.1c10.9-11.5 16.9-26.5 16.9-42.3 0-33.9-27.5-61.5-61.4-61.5-6.5 0-12.9 1-18.9 2.9l-27.1 8.8-5.2-28c-3.9-21.1-22.4-36.3-43.8-36.3-12.3 0-23.8 4.9-32.3 13.9l-20.7 21.8-17.7-24.3c-5.4-7.4-13.8-11.7-22.9-11.7-13.7 0-25.4 9.7-27.9 23.1l-7 37.2-31.5-21c-11.8-7.9-25.7-12.1-40-12.1-40 0-72.6 32.5-72.6 72.5 0 8.6 1.5 17 4.4 24.9l5.8 15.8-12.5 11.4c-12.8 11.6-20.1 28.2-20.1 45.5 0 33.9 27.6 61.5 61.5 61.5 8.3 0 16.4-1.7 24-4.9z"/>
	<path id="&lt;Compound Path&gt;" class="s1" d="m609.3 233.9c14.7-15.5 23.7-36.5 23.7-59.5 0-47.8-38.7-86.6-86.5-86.6-9.2 0-18.2 1.5-26.5 4.2-6-32.3-34.4-56.8-68.4-56.8-19.9 0-37.8 8.4-50.5 21.7-9.7-13.3-25.4-21.9-43.2-21.9-26 0-47.8 18.7-52.4 43.4-15.5-10.3-34-16.3-54-16.3-53.9 0-97.5 43.7-97.5 97.6 0 11.8 2 23.1 5.9 33.5-17.4 15.9-28.4 38.7-28.4 64.1 0 47.8 38.8 86.5 86.6 86.5 11.9 0 23.3-2.4 33.7-6.8q-0.3 3.3-0.3 6.8c0 47.8 38.8 86.5 86.6 86.5 29.1 0 54.9-14.4 70.6-36.5 14.3 10.6 32.1 16.9 51.3 16.9 24.7 0 47-10.4 62.8-27 12 6.2 25.6 9.8 40.1 9.8 47.8 0 86.5-38.8 86.5-86.5 0-30.7-16-57.7-40.1-73.1z"/>
</svg>