<svg version="1.2" xmlns="http://www.w3.org/2000/svg" viewBox="0 0 41 40" width="41" height="40">
	<title>icon-soc-tg-svg</title>
	<style>
		.s0 { opacity: .2;fill: #ffffff } 
		.s1 { fill: #ffffff } 
	</style>
	<path id="Layer" class="s0" d="m0.5 20c0-11 9-20 20-20 11 0 20 9 20 20 0 11-9 20-20 20-11 0-20-9-20-20z"/>
	<path id="Layer copy" fill-rule="evenodd" class="s1" d="m20.9 7c0 0 0.2 0.1 0.4 0.2 0.2 0.1 1.2 0.6 2.3 1.2 2.1 1.1 2.9 1.6 3 1.6 0 0.1-0.2 0.2-2.4 1.2l-1.5 0.6-0.9-0.4-0.9-0.5-0.9 0.4c-0.4 0.3-0.8 0.5-0.9 0.5-0.1 0-3.7-1.8-3.7-1.9 0 0 1.2-0.7 2.7-1.5 1.5-0.8 2.8-1.4 2.8-1.4zm-7.6 4c0 0 1.8 0.8 3.8 1.9 2.7 1.4 3.7 1.9 3.6 2-0.1 0-0.5 0.2-0.9 0.4-0.5 0.2-1.1 0.5-1.3 0.6q-0.1 0-0.2 0.1-0.1 0-0.2 0.1-0.1 0-0.3 0.1-0.1 0-0.2 0.1l-0.5 0.2-1-0.6q-0.2-0.1-0.5-0.2-0.2-0.1-0.5-0.3-0.2-0.1-0.4-0.2-0.3-0.2-0.5-0.3l-0.8-0.4v3.7l-1.7 0.7c-0.9 0.4-1.6 0.8-1.7 0.8 0 0 0-1.6 0-3.6v-3.5l1.6-0.8c0.8-0.4 1.6-0.8 1.7-0.8zm15.6 0.2c0 0 0.7 0.3 1.4 0.7l1.4 0.7v2.1 2.1l-1 0.5c-0.5 0.2-2.1 0.9-3.4 1.5q-0.5 0.2-1.1 0.5-0.5 0.2-1.1 0.5-0.5 0.2-1.1 0.5-0.5 0.2-1.1 0.5c-3.3 1.5-4.8 2.2-6.9 3.1-1 0.5-1.8 0.9-1.8 0.9q0 0 0.1 0.1c0.1 0 0.4 0.2 0.8 0.4 0.4 0.2 0.9 0.5 1.1 0.6 0.2 0.2 0.4 0.3 0.4 0.3 0 0.1-0.8 0.5-1.9 1l-1.9 0.8-1.4-0.7-1.4-0.7v-2.1c0-1.7 0.1-2.1 0.2-2.1 0.1-0.1 0.8-0.4 3.6-1.7 0.1 0 1.3-0.6 2.7-1.2l5.3-2.4c1.6-0.7 3.6-1.6 4.3-1.9 0.8-0.4 1.4-0.7 1.4-0.7 0 0-0.6-0.4-1.3-0.8-0.7-0.4-1.3-0.7-1.3-0.7 0-0.1 0.9-0.5 2-1 1-0.4 1.9-0.8 2-0.8zm2.9 8.2c0 0 0 6.9 0 7-0.1 0.1-0.8 0.5-1.7 1l-1.6 0.8-3.7-2c-2.1-1-3.7-1.9-3.7-1.9 0-0.1 0.7-0.4 1.6-0.8 0.8-0.3 1.6-0.7 1.7-0.7 0.2-0.1 0.3-0.1 1.2 0.4 1.4 0.7 2.7 1.4 2.8 1.4 0 0 0-0.8 0-1.8l0.1-1.9 0.7-0.3c0.4-0.2 0.9-0.4 1.2-0.6 0.3-0.1 0.7-0.3 0.9-0.4 0.2-0.1 0.4-0.2 0.5-0.2zm-8.6 8l1.7 0.9c0.9 0.5 1.7 0.9 1.8 0.9 0 0-0.8 0.4-1.7 0.9-1 0.5-2.3 1.1-2.9 1.4l-1.2 0.6-2.8-1.4c-2.4-1.2-3-1.6-2.6-1.6 0 0 0.8-0.3 1.6-0.7 0.9-0.4 1.7-0.8 1.8-0.8 0.1-0.1 0.4 0 1.1 0.4 1 0.5 0.8 0.4 1.7 0.1q0.1-0.1 0.2-0.1 0.1 0 0.2-0.1 0.1 0 0.2-0.1 0.1 0 0.2-0.1z"/>
</svg>